<svg width="24.000000" height="24.000000" viewBox="0 0 24 24" fill="none" xmlns="http://www.w3.org/2000/svg" xmlns:xlink="http://www.w3.org/1999/xlink">
	<desc>
			Created with Pixso.
	</desc>
	<defs>
		<clipPath id="clip38_4094">
			<rect id="Teacup 5" width="24.000000" height="24.000000" fill="white" fill-opacity="0"/>
		</clipPath>
	</defs>
	<g clip-path="url(#clip38_4094)">
		<path id="path" d="M10.6556 13.856L10.6646 13.8291C11.0403 13.6414 11.483 13.7888 11.6708 14.1646C11.8586 14.5403 11.7111 14.9829 11.3354 15.1709L11.3086 15.1619L10.6556 13.856ZM16.3444 12.644L16.3354 12.6709C15.9597 12.8586 15.517 12.7112 15.3292 12.3354C15.1414 11.9597 15.2889 11.5171 15.6646 11.3291L15.6914 11.3381L16.3444 12.644Z" fill="#000000" fill-opacity="0" fill-rule="nonzero"/>
		<path id="path" d="M11 14.5L6.88815 16.5559C6.3497 16.8252 5.70245 16.7463 5.24429 16.356L2 13.5903L3.78113 12.908C4.09935 12.7859 4.4496 12.7759 4.77423 12.8796L6.41365 13.4031C6.78935 13.5232 7.1972 13.4902 7.54884 13.3118L18.68 7.66235C18.8904 7.55566 19.123 7.5 19.3589 7.5L22 7.5L21.2236 9.05273C21.0784 9.34302 20.8431 9.57837 20.5528 9.72363L16 12" stroke="#FFFFFF" stroke-opacity="1.000000" stroke-width="1.500000" stroke-linejoin="round" stroke-linecap="round"/>
		<path id="path" d="M10.656 13.856L10.665 13.8291C11.0406 13.6414 11.4834 13.7891 11.6712 14.1646C11.859 14.5403 11.7114 14.9829 11.3357 15.1709L11.3089 15.1619L10.656 13.856ZM15.3456 11.676L15.3373 11.6492C15.5338 11.2778 15.9799 11.1406 16.3511 11.3372C16.7223 11.5337 16.8595 11.9797 16.663 12.3508L16.636 12.3591L15.3456 11.676Z" fill="#000000" fill-opacity="0" fill-rule="nonzero"/>
		<path id="path" d="M11.0004 14.5L9.00015 15.5L11.5002 20.5L16.0002 12" stroke="#FFFFFF" stroke-opacity="1.000000" stroke-width="1.500000" stroke-linejoin="round" stroke-linecap="round"/>
		<path id="path" d="M9.12842 12.1279L9.15562 12.1357C9.35959 12.5029 9.23138 12.9517 8.86423 13.1555C8.49709 13.3596 8.04836 13.2314 7.84438 12.8643L7.85216 12.8369L9.12842 12.1279ZM14.1577 9.28687L14.1819 9.27246C14.5894 9.37427 14.8295 9.77441 14.7276 10.1819C14.6257 10.5894 14.2256 10.8296 13.8181 10.7275L13.8035 10.7034L14.1577 9.28687Z" fill="#000000" fill-opacity="0" fill-rule="nonzero"/>
		<path id="path" d="M8.5 12.5L6 8L14 10" stroke="#FFFFFF" stroke-opacity="1.000000" stroke-width="1.500000" stroke-linejoin="round" stroke-linecap="round"/>
	</g>
</svg>
