
<svg version="1.0" xmlns="http://www.w3.org/2000/svg"
 width="1600.000000pt" height="477.000000pt" viewBox="0 0 1600.000000 477.000000"
 preserveAspectRatio="xMidYMid meet">

<g transform="translate(0.000000,477.000000) scale(0.100000,-0.100000)"
fill="#eeeeee50" stroke="none">
<path d="M2340 4630 c0 -5 7 -10 15 -10 13 0 15 -26 15 -175 0 -147 -2 -177
-15 -181 -8 -4 -15 -10 -15 -15 0 -5 7 -9 15 -9 13 0 15 -27 15 -180 0 -153
-2 -180 -15 -180 -8 0 -15 -4 -15 -10 0 -5 7 -10 15 -10 13 0 15 -27 15 -180
0 -153 -2 -180 -15 -180 -8 0 -15 -4 -15 -9 0 -5 7 -11 15 -15 12 -4 15 -32
15 -161 l0 -155 -29 0 c-17 0 -33 -4 -36 -10 -4 -6 25 -10 80 -10 55 0 84 4
80 10 -3 6 -17 10 -31 10 l-24 0 0 159 c0 118 3 161 13 165 10 5 10 7 0 12
-10 4 -13 51 -13 184 0 133 3 180 13 184 10 5 10 7 0 12 -10 4 -13 51 -13 184
0 133 3 180 13 184 10 5 10 7 0 12 -16 7 -19 364 -3 364 6 0 10 5 10 10 0 6
-20 10 -45 10 -25 0 -45 -4 -45 -10z"/>
<path d="M11783 3279 c-51 -44 -113 -108 -113 -118 0 -8 52 -11 180 -11 201 0
204 1 147 61 -69 71 -85 79 -145 79 -32 -1 -62 -6 -69 -11z"/>
<path d="M11678 3025 c3 -105 2 -115 -14 -115 -14 0 -15 -3 -6 -12 8 -8 12
-48 12 -115 l0 -103 -90 0 c-78 0 -96 -3 -137 -26 -26 -15 -52 -30 -57 -35 -5
-5 203 -8 462 -9 260 0 472 2 472 4 0 2 -21 17 -47 33 -41 24 -62 29 -143 33
l-95 5 -3 99 c-2 60 1 103 8 111 8 9 8 14 -1 17 -11 4 -14 201 -3 220 3 4 -77
8 -178 8 l-183 0 3 -115z m122 -20 c0 -78 -3 -95 -15 -95 -12 0 -15 17 -15 95
0 78 3 95 15 95 12 0 15 -17 15 -95z m130 0 c0 -78 -3 -95 -15 -95 -12 0 -15
17 -15 95 0 78 3 95 15 95 12 0 15 -17 15 -95z m-180 -21 c0 -72 -1 -74 -25
-74 -25 0 -25 1 -25 79 0 54 4 81 13 84 26 10 37 -16 37 -89z m130 0 l0 -74
-30 0 -30 0 0 69 c0 51 4 74 16 86 29 29 44 1 44 -81z m128 4 l3 -78 -31 0
-30 0 0 73 c0 80 4 89 35 85 18 -3 20 -11 23 -80z m-258 -204 l0 -105 -27 3
c-16 2 -27 6 -25 11 1 4 2 50 2 102 0 95 0 95 25 95 l25 0 0 -106z m260 1 l0
-105 -30 0 -30 0 0 105 0 105 30 0 30 0 0 -105z m-199 53 c0 -7 1 -44 2 -83 1
-68 0 -70 -23 -70 -25 0 -25 1 -21 75 1 41 5 78 8 83 7 12 33 8 34 -5z m64
-11 c4 -13 5 -50 3 -82 -3 -53 -5 -60 -25 -63 -22 -3 -23 -1 -23 76 0 43 3 82
7 85 14 14 33 6 38 -16z m59 7 c3 -9 6 -47 6 -85 0 -67 -1 -69 -25 -69 -25 0
-25 1 -25 78 0 43 3 82 7 85 11 12 31 7 37 -9z"/>
<path d="M2250 3105 c-16 -19 -14 -163 2 -182 6 -7 19 -13 30 -13 10 0 21 -7
24 -15 5 -12 24 -15 85 -15 64 0 79 3 79 15 0 9 9 15 23 15 38 0 47 19 47 101
0 108 -1 109 -154 109 -99 0 -126 -3 -136 -15z m30 -45 c0 -5 -4 -10 -10 -10
-5 0 -10 5 -10 10 0 6 5 10 10 10 6 0 10 -4 10 -10z m100 0 c0 -5 -4 -10 -10
-10 -5 0 -10 5 -10 10 0 6 5 10 10 10 6 0 10 -4 10 -10z m70 0 c0 -5 -4 -10
-10 -10 -5 0 -10 5 -10 10 0 6 5 10 10 10 6 0 10 -4 10 -10z m30 0 c0 -5 -4
-10 -10 -10 -5 0 -10 5 -10 10 0 6 5 10 10 10 6 0 10 -4 10 -10z m40 -45 c0
-13 -22 -15 -135 -15 -113 0 -135 2 -135 15 0 13 22 15 135 15 113 0 135 -2
135 -15z m-240 -55 c0 -5 -4 -10 -10 -10 -5 0 -10 5 -10 10 0 6 5 10 10 10 6
0 10 -4 10 -10z m100 0 c0 -5 -4 -10 -10 -10 -5 0 -10 5 -10 10 0 6 5 10 10
10 6 0 10 -4 10 -10z m70 0 c0 -5 -4 -10 -10 -10 -5 0 -10 5 -10 10 0 6 5 10
10 10 6 0 10 -4 10 -10z m30 0 c0 -5 -4 -10 -10 -10 -5 0 -10 5 -10 10 0 6 5
10 10 10 6 0 10 -4 10 -10z"/>
<path d="M2320 2345 l0 -515 65 0 65 0 0 515 0 515 -65 0 -65 0 0 -515z"/>
<path d="M11375 2580 c3 -5 22 -10 41 -10 l34 0 0 -105 c0 -73 -4 -105 -12
-105 -6 0 -8 -3 -4 -7 10 -11 813 -11 829 -1 9 6 9 8 0 8 -10 0 -13 28 -13
105 l0 105 40 0 c22 0 40 5 40 10 0 7 -167 10 -481 10 -317 0 -478 -3 -474
-10z m277 -57 c14 -12 18 -31 18 -84 0 -37 -4 -71 -10 -74 -6 -4 -10 19 -10
63 0 49 -4 73 -15 82 -25 21 -35 1 -35 -70 0 -92 -17 -99 -22 -9 -4 99 25 136
74 92z m152 1 c18 -18 23 -164 6 -164 -6 0 -10 31 -10 74 0 51 -4 76 -12 79
-31 10 -38 -6 -38 -79 0 -43 -4 -74 -10 -74 -6 0 -10 31 -10 72 0 94 32 134
74 92z m158 -3 c15 -21 12 -165 -3 -155 -5 3 -9 36 -9 74 0 71 -10 91 -35 70
-11 -9 -15 -33 -15 -82 0 -44 -4 -67 -10 -63 -5 3 -10 37 -10 75 0 60 3 71 22
84 29 21 44 20 60 -3z m152 0 c14 -15 17 -34 14 -88 -4 -88 -21 -89 -20 -1 0
47 -4 70 -14 79 -23 19 -33 0 -36 -76 -2 -42 -7 -68 -13 -65 -6 3 -9 36 -8 75
1 53 6 72 19 82 24 18 38 16 58 -6z m-554 -87 c0 -64 -16 -73 -21 -11 -5 54 0
79 12 72 5 -4 9 -31 9 -61z m150 6 c0 -33 -4 -60 -10 -60 -6 0 -10 27 -10 60
0 33 4 60 10 60 6 0 10 -27 10 -60z m150 0 c0 -33 -4 -60 -10 -60 -11 0 -14
103 -3 113 12 12 13 8 13 -53z m152 -19 c-3 -29 -7 -39 -13 -30 -10 17 -12 93
-2 103 12 12 20 -26 15 -73z m158 13 c0 -30 -4 -54 -10 -54 -6 0 -10 27 -10
61 0 37 4 58 10 54 6 -3 10 -31 10 -61z"/>
<path d="M623 2383 c-13 -9 -23 -24 -23 -34 0 -16 8 -19 46 -19 41 0 45 2 42
21 -2 12 -12 27 -23 34 -17 11 -24 11 -42 -2z"/>
<path d="M11813 2322 l-363 -2 0 -113 0 -112 -107 -40 c-59 -22 -108 -46 -111
-52 -3 -10 125 -13 617 -13 495 0 621 3 621 13 0 7 -48 30 -107 52 l-108 40
-3 112 -3 111 -37 3 c-20 2 -200 3 -399 1z m-208 -72 c15 -17 16 -24 7 -45
-16 -35 -58 -34 -74 1 -11 23 -10 29 11 45 29 24 34 24 56 -1z m546 10 c37
-20 15 -87 -27 -78 -9 2 -23 13 -31 25 -13 19 -12 24 6 42 24 24 26 24 52 11z
m-32 -139 c145 -55 266 -102 269 -105 3 -3 -239 -6 -538 -6 -299 0 -541 2
-538 5 5 5 529 204 538 205 3 0 124 -45 269 -99z"/>
<path d="M11818 2149 c-21 -12 -24 -69 -6 -87 18 -18 63 -14 81 6 45 50 -17
115 -75 81z"/>
<path d="M544 2278 c40 -95 34 -90 100 -86 61 3 61 3 84 47 35 71 36 71 -88
71 l-110 0 14 -32z"/>
<path d="M561 1737 c-12 -238 -26 -506 -31 -597 -6 -91 -10 -182 -10 -202 l0
-38 126 0 126 0 -6 93 c-3 50 -11 189 -16 307 -6 118 -14 294 -20 390 -5 96
-12 243 -16 327 l-6 151 -62 1 -62 0 -23 -432z m109 327 c0 -30 -3 -34 -25
-34 -22 0 -25 4 -25 33 0 18 5 38 12 45 18 18 38 -5 38 -44z m33 -179 c-4 -15
-115 -13 -121 3 -3 10 11 12 59 10 36 -2 63 -7 62 -13z m17 -365 c0 -6 -32
-10 -75 -10 -43 0 -75 4 -75 10 0 6 32 10 75 10 43 0 75 -4 75 -10z"/>
<path d="M11257 1963 c-4 -3 -7 -46 -7 -95 l0 -88 -30 0 c-20 0 -30 -5 -30
-15 0 -10 10 -15 30 -15 l30 0 0 -115 0 -115 -40 0 c-29 0 -40 -4 -40 -15 0
-9 9 -15 25 -15 l24 0 3 -134 3 -134 314 114 313 114 42 -15 c22 -7 73 -26
111 -40 39 -15 160 -59 270 -99 l200 -72 3 133 3 133 24 0 c16 0 25 6 25 15 0
11 -11 15 -40 15 l-40 0 0 115 0 115 30 0 c20 0 30 5 30 15 0 10 -10 15 -30
15 l-29 0 -3 93 -3 92 -591 3 c-325 1 -594 -1 -597 -5z m348 -48 c0 -25 -4
-30 -24 -30 -32 0 -49 28 -31 50 7 9 23 15 34 13 16 -2 21 -10 21 -33z m276
19 c9 -11 10 -20 2 -32 -15 -24 -44 -27 -59 -7 -28 38 27 75 57 39z m274 -19
c0 -24 -5 -31 -24 -33 -31 -5 -45 11 -37 43 5 21 12 26 34 23 23 -2 27 -8 27
-33z m-762 -113 c9 -8 17 -23 17 -34 0 -10 7 -18 15 -18 12 0 15 -19 15 -115
l0 -115 -65 0 -65 0 0 115 c0 96 3 115 15 115 11 0 15 11 15 40 0 33 3 38 18
33 9 -3 25 -13 35 -21z m95 11 c5 -17 -26 -29 -40 -15 -6 6 -7 15 -3 22 9 14
37 9 43 -7z m142 2 c16 -9 33 -27 36 -40 3 -14 13 -25 20 -25 12 0 14 -20 12
-112 l-3 -113 -100 0 -100 0 -3 113 c-2 92 0 112 12 112 7 0 17 11 20 25 5 21
46 53 69 55 4 0 21 -7 37 -15z m110 -5 c0 -21 -24 -28 -35 -10 -8 14 3 30 21
30 8 0 14 -9 14 -20z m158 -9 c52 -56 52 -56 52 -171 l0 -110 -100 0 -100 0 0
115 c0 96 3 115 15 115 8 0 15 9 15 19 0 23 45 61 72 61 11 0 32 -13 46 -29z
m97 9 c0 -8 -8 -16 -17 -18 -13 -2 -18 3 -18 18 0 15 5 20 18 18 9 -2 17 -10
17 -18z m159 -1 c14 -11 26 -29 26 -40 0 -10 7 -19 15 -19 12 0 15 -19 15
-115 l0 -116 -102 3 -103 3 -3 113 c-3 97 -1 112 13 112 8 0 20 11 25 24 10
27 47 56 71 56 9 0 28 -9 43 -21z m101 1 c0 -8 -8 -16 -17 -18 -13 -2 -18 3
-18 18 0 15 5 20 18 18 9 -2 17 -10 17 -18z m115 -20 c0 -29 4 -40 15 -40 12
0 15 -19 15 -115 l0 -116 -67 3 -68 3 -3 113 c-2 95 0 112 13 112 8 0 15 8 15
18 0 15 54 62 72 62 5 0 8 -18 8 -40z m-1050 -330 c0 -23 -4 -30 -20 -30 -16
0 -20 7 -20 30 0 23 4 30 20 30 16 0 20 -7 20 -30z m150 0 c0 -23 -4 -30 -20
-30 -16 0 -20 7 -20 30 0 23 4 30 20 30 16 0 20 -7 20 -30z m250 0 c0 -20 -5
-30 -15 -30 -10 0 -15 10 -15 30 0 20 5 30 15 30 10 0 15 -10 15 -30z m298 -2
c-2 -22 -9 -34 -20 -36 -15 -3 -18 4 -18 32 0 30 4 36 21 36 17 0 20 -5 17
-32z m252 2 c0 -20 -5 -30 -15 -30 -10 0 -15 10 -15 30 0 20 5 30 15 30 10 0
15 -10 15 -30z m150 0 c0 -23 -4 -30 -20 -30 -16 0 -20 6 -18 30 2 21 7 30 20
30 13 0 18 -8 18 -30z m-1020 -74 c6 -8 10 -25 8 -38 -6 -42 -78 -32 -78 11 0
37 46 55 70 27z m960 0 c20 -25 8 -61 -21 -64 -36 -4 -55 21 -41 53 13 28 43
33 62 11z"/>
<path d="M1170 1865 c0 -9 7 -18 15 -22 23 -8 24 0 3 20 -15 14 -18 15 -18 2z"/>
<path d="M8840 1841 c0 -10 19 -25 25 -20 1 2 -3 10 -11 17 -8 7 -14 8 -14 3z"/>
<path d="M10660 1830 c-9 -6 -10 -10 -3 -10 6 0 15 5 18 10 8 12 4 12 -15 0z"/>
<path d="M1182 1790 c0 -14 2 -19 5 -12 2 6 2 18 0 25 -3 6 -5 1 -5 -13z"/>
<path d="M2290 1770 c0 -38 -2 -40 -30 -40 -41 0 -50 -23 -50 -129 0 -87 1
-90 29 -110 19 -14 30 -32 34 -57 12 -70 -30 -233 -124 -491 -50 -136 -117
-320 -150 -408 l-58 -160 0 248 -1 247 -200 0 -200 0 0 -320 c0 -207 -4 -320
-10 -320 -6 0 -10 133 -10 380 l0 380 -30 0 -30 0 3 115 2 115 -277 0 -278 0
0 -115 0 -115 -31 0 -30 0 1 -97 c4 -328 -1 -663 -10 -663 -6 0 -10 113 -10
320 l0 320 -195 0 -195 0 0 -320 0 -320 -220 0 -220 0 0 -100 0 -100 8000 0
8000 0 0 100 0 100 -180 0 -180 0 0 235 0 235 -457 2 -458 3 -3 53 c-2 37 -7
52 -18 52 -12 0 -14 -42 -14 -276 0 -181 -3 -273 -10 -269 -6 4 -10 230 -10
646 l0 639 -631 0 -630 0 1 -97 c1 -54 0 -343 -2 -643 -2 -443 -3 -494 -8
-276 -4 196 -8 270 -17 273 -8 3 -13 -13 -15 -49 l-3 -53 -407 -3 -408 -2 0
170 0 170 -700 0 -700 0 0 -107 0 -108 -425 3 -425 2 0 -30 0 -30 425 0 c277
0 425 -3 425 -10 0 -7 -148 -10 -425 -10 l-425 0 0 -260 c0 -167 -4 -260 -10
-260 -7 0 -10 245 -10 715 l0 715 -514 0 c-466 0 -514 -2 -520 -16 -4 -9 -6
-224 -6 -478 1 -894 0 -936 -10 -936 -6 0 -10 93 -10 260 l0 260 -374 0 c-239
0 -377 4 -381 10 -4 7 123 10 374 10 l381 0 0 30 0 29 -445 0 -445 0 -86 70
c-133 108 -261 177 -423 230 -145 47 -201 53 -507 49 l-289 -4 -105 -33 c-185
-57 -341 -140 -472 -250 l-66 -56 30 -10 c47 -15 71 -55 76 -125 l4 -59 37 57
c69 105 139 148 202 122 36 -15 75 -79 85 -138 l7 -42 24 52 c38 82 100 138
154 138 57 0 128 -85 144 -173 l7 -38 24 57 c27 68 65 110 119 135 52 24 99
24 152 -2 62 -30 93 -70 127 -164 6 -16 11 -8 26 38 34 110 96 160 169 139 46
-14 72 -42 115 -121 l33 -63 7 50 c3 27 17 65 29 83 63 94 163 68 247 -62 l38
-59 7 48 c6 45 40 120 50 110 3 -2 -5 -22 -16 -44 -18 -33 -20 -52 -16 -131
l4 -93 -33 76 c-55 126 -122 196 -190 196 -71 0 -113 -78 -115 -216 l-1 -71
-13 51 c-16 66 -60 162 -88 193 -83 90 -182 39 -221 -115 -9 -34 -16 -79 -17
-100 -1 -34 -3 -30 -14 26 -32 154 -100 232 -204 232 -110 0 -192 -95 -210
-245 l-7 -62 -8 65 c-11 86 -29 144 -60 191 -79 118 -214 27 -261 -176 l-12
-50 -5 81 c-7 90 -34 166 -66 183 -12 6 -37 11 -57 11 -29 0 -45 -9 -84 -45
-43 -41 -68 -81 -124 -205 l-16 -35 7 35 c14 71 8 183 -13 213 -40 60 -106 54
-179 -18 -64 -61 -115 -144 -176 -285 -29 -66 -54 -119 -55 -118 -2 2 -8 165
-14 363 -6 198 -14 399 -17 448 l-7 87 -118 0 -119 0 0 -67 c0 -69 -14 -481
-26 -786 -4 -100 -11 -167 -17 -167 -9 0 -5 245 9 553 l7 127 -397 0 -396 0 0
-340 c0 -220 -4 -340 -10 -340 -7 0 -10 200 -10 580 l0 580 -480 0 -480 0 0
-577 c0 -317 -2 -579 -5 -581 -3 -3 -5 148 -5 336 l0 342 -396 0 -396 0 6
-187 c3 -104 9 -257 12 -340 4 -98 3 -153 -3 -153 -13 0 -20 120 -33 570 -6
201 -14 384 -16 408 l-5 42 -120 0 -119 0 -1 -142 c-1 -79 -3 -154 -4 -168 -2
-14 -6 -151 -10 -305 -4 -154 -11 -288 -14 -298 -9 -24 -325 843 -346 947 -24
122 -16 206 19 206 21 0 26 23 26 124 0 98 -7 116 -47 116 -20 0 -23 5 -23 40
l0 40 -100 0 -100 0 0 -40z m-40 -125 c0 -8 -4 -15 -10 -15 -5 0 -10 7 -10 15
0 8 5 15 10 15 6 0 10 -7 10 -15z m40 0 c0 -8 -7 -15 -15 -15 -8 0 -15 7 -15
15 0 8 7 15 15 15 8 0 15 -7 15 -15z m90 0 c0 -11 -11 -15 -40 -15 -29 0 -40
4 -40 15 0 11 11 15 40 15 29 0 40 -4 40 -15z m40 -2 c0 -14 -2 -15 -9 -4 -7
11 -9 11 -14 0 -4 -10 -6 -9 -6 4 -1 9 6 17 14 17 8 0 15 -8 15 -17z m17 -5
c-3 -8 -6 -5 -6 6 -1 11 2 17 5 13 3 -3 4 -12 1 -19z m20 0 c-3 -8 -6 -5 -6 6
-1 11 2 17 5 13 3 -3 4 -12 1 -19z m20 0 c-3 -8 -6 -5 -6 6 -1 11 2 17 5 13 3
-3 4 -12 1 -19z m63 7 c0 -8 -7 -15 -15 -15 -8 0 -15 6 -15 13 0 8 -4 7 -10
-3 -8 -13 -10 -12 -10 3 0 12 8 17 25 17 16 0 25 -6 25 -15z m6891 -19 c2 -2
2 -32 1 -65 l-4 -61 -53 0 -53 0 -4 58 c-2 31 -3 60 -1 65 4 7 106 10 114 3z
m441 -6 l198 0 0 -55 0 -55 -304 0 c-282 0 -305 1 -309 18 -7 24 -7 84 0 95 4
6 48 7 111 3 58 -3 194 -6 304 -6z m336 -622 l-3 -623 -57 -3 -58 -3 0 626 0
625 60 0 60 0 -2 -622z m-7958 577 c0 -8 -4 -15 -10 -15 -5 0 -10 7 -10 15 0
8 5 15 10 15 6 0 10 -7 10 -15z m40 -2 c0 -7 -7 -13 -15 -13 -8 0 -15 6 -15
13 0 8 7 14 15 14 8 0 15 -6 15 -14z m110 5 c0 -9 4 -8 10 2 8 13 10 12 10 -2
0 -15 -9 -18 -60 -18 -47 0 -60 3 -60 15 0 11 12 15 50 15 33 0 50 -4 50 -12z
m37 -10 c-3 -8 -6 -5 -6 6 -1 11 2 17 5 13 3 -3 4 -12 1 -19z m20 0 c-3 -8 -6
-5 -6 6 -1 11 2 17 5 13 3 -3 4 -12 1 -19z m83 7 c0 -8 -7 -15 -15 -15 -8 0
-15 6 -15 13 0 8 -4 7 -10 -3 -9 -13 -10 -13 -10 0 0 13 -1 13 -10 0 -8 -13
-10 -12 -10 3 0 13 8 17 35 17 24 0 35 -5 35 -15z m12070 -55 c0 -7 -195 -10
-565 -10 -370 0 -565 3 -565 10 0 7 195 10 565 10 370 0 565 -3 565 -10z
m-1110 -57 c2 -233 -2 -1058 -5 -1062 -3 -2 -7 -2 -10 1 -4 3 -7 754 -5 1046
0 17 5 32 10 32 6 0 10 -8 10 -17z m160 -128 l0 -145 -50 0 -50 0 0 145 0 145
50 0 50 0 0 -145z m780 -395 l0 -540 -40 0 -40 0 0 525 0 525 -315 0 -315 0 0
-525 c0 -518 0 -525 -20 -525 -20 0 -20 7 -20 540 l0 540 375 0 375 0 0 -540z
m130 395 l0 -145 -45 0 -45 0 0 145 0 145 45 0 45 0 0 -145z m40 -395 c0 -353
-3 -540 -10 -540 -7 0 -10 187 -10 540 0 353 3 540 10 540 7 0 10 -187 10
-540z m-5180 -21 l0 -549 -55 0 -55 0 0 550 0 550 55 -1 55 -2 0 -548z m639
339 c0 -186 -2 -208 -13 -173 -18 59 -57 115 -116 168 -57 51 -148 107 -175
107 -33 0 -140 -65 -196 -120 -54 -53 -99 -123 -99 -155 0 -8 -5 -15 -11 -15
-6 0 -8 7 -5 16 3 9 6 99 6 200 l0 184 305 0 305 0 -1 -212z m4271 107 l0 -65
-300 0 -300 0 0 65 0 65 300 0 300 0 0 -65z m-11890 13 c0 -13 -5 -117 -10
-233 -11 -233 -40 -883 -40 -902 0 -7 -6 -13 -13 -13 -10 0 -16 68 -25 307
-16 402 -31 734 -36 806 l-4 57 64 0 c60 0 64 -2 64 -22z m2344 -571 c-1 -304
2 -532 5 -507 l6 45 48 3 47 3 0 -50 0 -51 -50 0 c-27 0 -50 -4 -50 -10 0 -5
-9 -10 -20 -10 -16 0 -20 7 -21 38 0 20 -1 179 -2 352 l-2 315 -27 57 c-35 75
-97 133 -187 176 -70 34 -76 35 -120 23 -100 -27 -195 -102 -238 -189 l-28
-57 -3 -358 c-3 -346 -4 -357 -22 -357 -20 0 -20 11 -20 565 l0 565 158 2 c86
2 240 2 342 0 l185 -3 -1 -552z m-694 432 l0 -109 -50 0 -50 0 0 103 c0 57 2
106 4 108 3 3 25 5 50 5 l46 1 0 -108z m800 -2 l0 -108 -47 3 -48 3 -3 94 c-1
52 0 101 2 108 4 9 20 12 51 11 l45 -3 0 -108z m4936 57 c83 -50 148 -117 178
-184 l26 -58 -2 -339 -3 -338 -82 -3 -82 -3 -4 -72 c-2 -46 -4 -26 -5 56 l-2
127 -100 0 -100 0 1 -121 c0 -66 -2 -123 -5 -126 -6 -6 -10 58 -6 110 1 23 -2
27 -27 28 -15 0 -53 1 -83 2 l-55 2 0 345 0 345 25 50 c13 28 47 73 75 100 51
52 147 114 176 115 8 0 42 -16 75 -36z m4504 -176 c0 -153 0 -153 -18 -123
-34 55 -119 122 -196 154 -41 17 -80 31 -86 31 -7 0 -49 -17 -94 -39 -80 -37
-151 -94 -188 -151 -16 -24 -17 -18 -17 121 -1 80 2 149 6 152 3 4 138 7 300
7 l293 0 0 -152z m-11408 10 c1 -96 2 -98 7 -36 7 72 12 84 36 74 14 -5 16
-21 13 -106 l-3 -100 73 0 c55 0 73 -3 70 -12 -3 -9 -38 -14 -116 -16 -95 -2
-112 0 -112 13 0 11 11 15 38 16 20 1 29 3 20 6 -10 2 -19 12 -19 21 -1 15 -2
15 -6 0 -2 -10 -9 -18 -14 -18 -5 0 -9 57 -9 130 0 80 4 130 10 130 6 0 11
-42 12 -102z m93 17 c-5 -58 -4 -85 3 -85 6 0 12 24 14 52 3 59 26 76 46 36 9
-20 11 -16 11 30 1 28 6 52 11 52 6 0 10 -48 10 -124 0 -139 -19 -189 -22 -59
l-2 78 -3 -77 c-4 -74 -5 -78 -28 -78 -13 0 -26 6 -28 13 -4 9 -8 8 -16 -3 -8
-11 -11 3 -11 56 0 39 -3 99 -6 133 -6 54 -5 61 10 61 16 0 17 -8 11 -85z
m2786 58 c1 -16 1 -31 0 -35 0 -4 12 -6 27 -5 l27 2 3 -97 3 -98 -26 0 c-24 0
-25 2 -27 78 l-2 77 -3 -77 c-6 -129 -23 -90 -23 52 0 80 4 130 10 130 6 0 11
-12 11 -27z m90 -55 c1 -71 3 -76 8 -36 8 57 16 66 41 50 19 -11 20 -9 20 28
0 29 4 40 15 40 13 0 15 -21 15 -128 l0 -128 -45 -2 -45 -2 -2 48 -2 47 -3
-47 c-2 -27 -8 -48 -14 -48 -5 0 -9 55 -9 130 0 80 4 130 10 130 6 0 11 -35
11 -82z m-4907 36 c13 -5 16 -23 16 -90 0 -83 0 -84 -25 -84 -25 0 -25 1 -25
83 0 94 3 103 34 91z m114 -87 l3 -87 -26 0 c-25 0 -25 1 -25 84 0 82 6 99 35
92 6 -2 11 -42 13 -89z m102 73 c6 -11 10 -51 8 -88 -3 -65 -4 -67 -30 -70
l-28 -3 0 85 c0 80 4 92 32 95 4 1 12 -8 18 -19z m99 6 c7 -9 11 -42 9 -88 -3
-71 -4 -73 -30 -76 l-28 -3 0 75 c0 41 3 81 6 90 8 20 28 21 43 2z m100 0 c7
-9 11 -42 9 -88 -3 -70 -4 -73 -28 -73 -24 0 -25 3 -28 73 -3 69 6 102 28 102
4 0 13 -6 19 -14z m12738 -82 c76 -37 143 -100 162 -154 l10 -30 -275 0 -275
0 7 23 c17 57 87 125 169 165 100 49 92 49 202 -4z m-11827 -424 l0 -440 -190
0 -190 0 0 26 c0 14 45 125 100 247 246 544 275 607 278 607 1 0 2 -198 2
-440z m280 130 c73 -162 159 -353 191 -424 33 -70 59 -132 59 -137 0 -5 -90
-9 -200 -9 l-200 0 0 442 c0 250 4 438 9 433 4 -6 68 -143 141 -305z m1500
250 l0 -50 -50 0 -50 0 0 50 0 50 50 0 50 0 0 -50z m800 0 l0 -50 -50 0 -50 0
0 50 0 50 50 0 50 0 0 -50z m8758 -162 l2 -198 -50 0 -50 0 0 193 c0 107 3
197 7 201 4 4 25 6 48 4 l40 -3 3 -197z m910 -1 l2 -197 -45 0 -45 0 0 194 0
195 33 4 c17 2 37 3 42 2 6 -1 11 -77 13 -198z m-13606 53 l4 -40 -41 0 c-42
0 -43 2 -36 73 1 4 16 7 35 7 32 0 34 -2 38 -40z m418 0 l0 -40 -195 0 -195 0
0 40 0 40 195 0 195 0 0 -40z m110 0 l0 -40 -40 0 -40 0 0 40 0 40 40 0 40 0
0 -40z m9720 -60 c0 -32 -5 -50 -14 -53 -8 -3 -17 -3 -20 0 -8 8 -8 138 1 146
12 13 33 -46 33 -93z m114 78 c8 -27 8 -565 0 -590 -7 -22 -40 -23 -48 -2 -11
29 -7 572 5 579 6 4 8 13 5 21 -3 9 1 14 13 14 11 0 22 -10 25 -22z m310 8
c-3 -8 -1 -17 5 -21 6 -3 11 -22 11 -41 l0 -34 -130 0 -130 0 0 28 c0 15 6 40
13 55 12 27 12 27 124 27 92 0 111 -3 107 -14z m340 0 c-3 -8 -1 -17 5 -21 7
-4 11 -99 11 -290 0 -239 -2 -286 -15 -299 -9 -9 -15 -34 -15 -65 0 -28 -4
-51 -10 -51 -6 0 -10 88 -10 243 -1 254 -2 261 -47 285 -37 20 -73 14 -104
-17 l-29 -29 0 -242 c0 -158 -3 -239 -10 -235 -5 3 -10 28 -10 55 0 30 -5 50
-12 52 -19 7 -24 558 -6 599 l13 29 122 0 c101 0 121 -2 117 -14z m324 -13 c6
-15 12 -40 12 -55 l0 -28 -130 0 -130 0 0 28 c0 15 6 40 13 55 12 27 13 27
117 27 104 0 105 0 118 -27z m129 1 c16 -34 18 -555 3 -584 -13 -24 -45 -26
-54 -4 -3 9 -6 138 -6 288 0 197 3 279 13 299 15 34 29 34 44 1z m101 -119
c-2 -90 -7 -130 -15 -132 -15 -5 -22 183 -9 240 16 70 27 23 24 -108z m-8428
30 l0 -105 -50 0 -50 0 0 105 0 105 50 0 50 0 0 -105z m800 0 l0 -105 -50 0
-51 0 2 105 1 105 49 0 49 0 0 -105z m1108 83 c-3 -9 -38 -14 -116 -16 -95 -2
-112 0 -112 13 0 13 18 15 116 15 88 0 115 -3 112 -12z m-5050 -166 l-2 -107
-5 90 c-5 81 -8 90 -26 90 -18 0 -20 -8 -25 -90 -3 -49 -8 -85 -12 -80 -6 10
-9 184 -3 195 2 3 19 6 39 7 l36 2 -2 -107z m420 -219 c1 -214 -1 -323 -8
-323 -6 0 -10 70 -10 195 0 216 -3 229 -63 281 -71 64 -132 67 -205 14 -72
-52 -77 -69 -80 -292 -2 -112 -8 -198 -13 -198 -10 0 -13 633 -2 644 4 3 90 5
192 4 l186 -3 3 -322z m112 219 c0 -66 -4 -101 -10 -97 -5 3 -10 44 -10 91 0
77 -2 84 -20 84 -18 0 -20 -7 -20 -85 0 -50 -4 -85 -10 -85 -10 0 -15 182 -4
192 3 3 21 6 40 5 l34 -1 0 -104z m1954 16 c3 -50 6 -115 6 -145 0 -52 0 -53
-30 -53 -23 0 -30 4 -30 20 0 25 27 27 33 3 3 -10 5 23 6 74 1 90 1 92 -30
117 -40 34 -64 33 -100 -3 -28 -28 -29 -34 -31 -123 -1 -74 -2 -83 -7 -43 -3
28 -5 94 -3 148 l3 97 88 0 88 0 7 -92z m244 -55 c-1 -143 -2 -144 -7 -50 -6
93 -8 100 -34 123 -33 28 -58 30 -92 8 -32 -21 -37 -36 -45 -139 -7 -88 -7
-86 -8 51 -1 77 1 144 5 147 3 4 46 7 95 7 l88 0 -2 -147z m250 0 c2 -95 -1
-143 -8 -143 -6 0 -10 35 -10 93 -1 95 -7 114 -47 135 -32 17 -49 15 -80 -12
-26 -23 -28 -30 -34 -123 -5 -94 -6 -92 -7 50 l-2 148 93 -3 92 -3 3 -142z
m1220 0 c-1 -143 -1 -145 -7 -50 -6 92 -8 100 -34 123 -35 30 -68 30 -103 1
-25 -22 -28 -32 -34 -123 l-7 -99 -1 148 -2 147 95 0 95 0 -2 -147z m250 -1
c2 -97 -1 -142 -8 -137 -6 3 -10 44 -10 95 0 86 -1 89 -31 114 -38 33 -60 33
-98 0 -30 -25 -31 -27 -32 -122 -1 -60 -4 -84 -8 -62 -3 19 -5 86 -3 148 l3
113 92 -3 92 -3 3 -143z m240 1 c-1 -143 -1 -145 -7 -50 -6 92 -8 100 -34 123
-16 13 -37 24 -48 24 -31 0 -66 -28 -78 -62 -12 -35 -14 -185 -2 -154 11 29
41 29 41 0 0 -20 -5 -24 -30 -24 l-30 0 0 138 c0 76 3 142 7 145 3 4 46 7 95
7 l88 0 -2 -147z m8277 7 l0 -135 -82 -3 -83 -3 0 134 c0 73 3 137 7 141 4 4
41 5 83 4 l75 -3 0 -135z m195 93 c-1 -38 -3 -44 -11 -30 -17 28 -66 49 -89
37 -40 -21 -50 -50 -50 -143 l0 -89 75 4 c41 2 75 0 75 -4 0 -5 -36 -8 -80 -8
l-80 0 0 133 c0 74 3 137 7 140 3 4 39 7 80 7 l73 0 0 -47z m202 -5 c2 -53 2
-75 -1 -175 l-1 -53 -80 0 -80 0 0 133 c0 74 3 137 7 140 3 4 39 7 80 7 l73 0
2 -52z m-9782 -138 l0 -160 -85 0 -85 0 0 160 0 160 85 0 85 0 0 -160z m7110
-99 c0 -191 -3 -232 -15 -245 -8 -8 -15 -22 -15 -30 0 -13 -15 -16 -95 -16
-79 0 -95 3 -95 15 0 9 -9 25 -20 37 -19 20 -20 36 -20 238 0 119 3 220 7 223
3 4 62 7 130 7 l123 0 0 -229z m658 -6 c-2 -154 -7 -238 -14 -243 -6 -4 -13
-15 -17 -24 -5 -15 -20 -18 -102 -18 -87 0 -95 2 -95 19 0 11 -6 21 -12 23
-10 4 -14 63 -16 241 l-3 237 131 0 131 0 -3 -235z m-1103 -222 c-3 -13 -10
-23 -15 -23 -10 0 -18 242 -10 338 3 35 1 67 -4 72 -7 7 -4 10 7 10 9 0 18 8
19 18 2 9 4 -75 6 -188 1 -113 0 -215 -3 -227z m-7820 339 c0 -30 -3 -56 -7
-58 -4 -2 -5 -16 -2 -29 4 -21 0 -25 -19 -25 -20 0 -25 6 -31 38 -3 20 -6 59
-6 85 l0 48 33 -3 c32 -3 32 -3 32 -56z m245 11 c0 -27 -3 -65 -6 -85 -6 -32
-11 -38 -31 -38 -22 0 -25 4 -21 25 3 14 2 25 -2 25 -4 0 -8 27 -9 60 l-2 60
35 0 36 0 0 -47z m248 -10 c-2 -32 -6 -60 -9 -63 -4 -3 -3 -14 2 -25 7 -20 8
-20 8 1 1 29 31 27 31 -3 0 -21 -5 -23 -44 -23 -42 0 -44 1 -50 38 -3 20 -6
58 -6 85 l0 47 35 0 35 0 -2 -57z m1222 10 c0 -89 -10 -123 -35 -123 -25 0
-35 34 -35 123 l0 47 35 0 35 0 0 -47z m244 25 c-3 -13 -5 -50 -7 -83 -2 -53
-5 -60 -23 -63 -18 -3 -22 4 -27 35 -4 21 -7 59 -7 86 0 47 0 47 34 47 29 0
33 -3 30 -22z m246 -25 c0 -27 -3 -65 -6 -85 -6 -32 -11 -38 -30 -38 -13 0
-24 6 -24 13 -1 6 -3 45 -7 85 l-5 72 36 0 36 0 0 -47z m6260 17 c0 -16 -7
-20 -32 -20 l-33 1 24 19 c30 25 41 25 41 0z m45 0 c18 -20 17 -20 -8 -20 -20
0 -27 5 -27 20 0 11 4 20 8 20 5 0 17 -9 27 -20z m-5471 -31 c21 -25 26 -41
26 -85 0 -49 -2 -54 -22 -55 -73 -1 -253 3 -257 6 -2 3 8 22 23 43 80 116 177
155 230 91z m314 8 c26 -28 52 -88 52 -121 0 -24 -2 -25 -82 -28 -46 -2 -111
-1 -146 2 l-63 5 39 61 c21 33 54 70 73 82 45 29 99 29 127 -1z m323 -5 c18
-16 38 -50 49 -82 l19 -55 -141 -3 c-77 -1 -143 -1 -145 2 -7 6 24 75 47 104
53 67 119 80 171 34z m390 6 c40 -23 84 -78 95 -122 l6 -26 -181 0 c-208 0
-207 -1 -148 86 56 83 147 108 228 62z m365 -10 c21 -18 48 -55 60 -83 l24
-50 -142 -3 c-77 -1 -143 0 -145 2 -13 13 31 108 63 136 48 41 91 41 140 -2z
m334 -14 c45 -42 88 -109 77 -120 -6 -7 -269 -6 -275 0 -2 3 -1 26 2 51 10 67
55 115 107 115 33 0 48 -7 89 -46z m-4050 -14 l0 -50 -50 0 -50 0 0 43 c0 24
3 47 7 50 3 4 26 7 50 7 l43 0 0 -50z m800 0 l0 -50 -50 0 -50 0 0 43 c0 24 3
47 7 50 3 4 26 7 50 7 l43 0 0 -50z m3440 -30 l0 -80 -31 0 -32 0 6 49 c6 53
31 111 47 111 6 0 10 -35 10 -80z m-7602 -182 l-2 -243 -5 175 c-3 96 -10 181
-15 188 -4 8 -22 22 -39 32 -27 17 -33 17 -58 4 -55 -28 -59 -43 -59 -228 0
-93 -2 -167 -4 -165 -5 5 -8 179 -7 367 l1 112 95 0 95 0 -2 -242z m1092 2 c0
-153 -4 -240 -10 -240 -6 0 -10 63 -10 169 0 93 -3 176 -6 185 -3 9 -21 25
-40 36 -32 20 -34 20 -61 4 -52 -33 -53 -36 -53 -221 0 -109 -4 -173 -10 -173
-6 0 -10 87 -10 240 l0 240 100 0 100 0 0 -240z m6641 230 c22 -12 26 -35 4
-26 -12 4 -15 -5 -15 -49 0 -42 -3 -55 -15 -55 -12 0 -15 14 -15 70 0 72 5 79
41 60z m259 -230 c0 -207 -2 -240 -15 -240 -13 0 -15 23 -15 143 0 165 -8 187
-87 237 -26 17 -43 30 -37 30 17 0 79 -42 101 -69 l22 -26 1 63 0 62 -83 0
c-71 0 -84 3 -95 20 -12 20 -10 20 98 20 l110 0 0 -240z m390 0 c0 -207 -2
-240 -15 -240 -13 0 -15 22 -15 138 0 158 -10 188 -77 236 -46 32 -62 29 -120
-27 -18 -17 -33 -26 -33 -21 0 12 34 44 72 69 35 22 59 14 114 -37 l44 -41 0
62 0 61 -121 0 -121 0 2 -67 c1 -38 2 -137 1 -220 -1 -146 -2 -153 -21 -153
-19 0 -20 7 -20 240 l0 240 155 0 155 0 0 -240z m1580 0 c0 -207 -2 -240 -15
-240 -13 0 -15 23 -15 143 0 162 -8 186 -80 233 l-40 27 -40 -27 c-72 -47 -80
-71 -80 -233 0 -120 -2 -143 -15 -143 -13 0 -15 33 -15 240 l0 240 150 0 150
0 0 -240z m390 0 c0 -200 -2 -240 -14 -240 -11 0 -15 29 -18 148 -3 164 -12
188 -83 232 -39 24 -57 19 -112 -33 -18 -17 -33 -26 -33 -21 0 12 34 44 72 69
35 22 59 14 114 -37 l44 -41 0 62 0 61 -121 0 -121 0 2 -67 c1 -38 2 -137 1
-220 -1 -146 -2 -153 -21 -153 -19 0 -20 7 -20 240 l0 240 155 0 155 0 0 -240z
m830 225 c0 -10 -18 -14 -70 -14 -54 0 -70 3 -70 14 0 11 16 14 70 14 52 0 70
-4 70 -14z m597 -262 c-1 -49 -3 -9 -3 87 0 96 2 136 3 88 2 -49 2 -127 0
-175z m260 -61 c-1 -59 -3 -10 -3 108 0 118 2 167 3 107 2 -59 2 -155 0 -215z
m30 0 c-1 -59 -3 -10 -3 108 0 118 2 167 3 107 2 -59 2 -155 0 -215z m270 0
c-1 -59 -3 -10 -3 108 0 118 2 167 3 107 2 -59 2 -155 0 -215z m30 0 c-1 -59
-3 -10 -3 108 0 118 2 167 3 107 2 -59 2 -155 0 -215z m1880 0 c-1 -59 -3 -10
-3 108 0 118 2 167 3 107 2 -59 2 -155 0 -215z m30 0 c-1 -59 -3 -10 -3 108 0
118 2 167 3 107 2 -59 2 -155 0 -215z m273 106 c0 -116 -2 -209 -4 -207 -8 8
-12 419 -4 419 4 0 8 -95 8 -212z m291 3 c1 -111 -2 -205 -5 -208 -3 -4 -6 90
-6 207 0 117 2 211 5 208 3 -3 6 -96 6 -207z m-264 -108 c-1 -59 -3 -14 -3
102 0 116 2 164 3 108 2 -56 2 -151 0 -210z m-14359 210 l-1 -88 -6 72 c-6 77
-12 89 -36 80 -11 -5 -15 -23 -15 -77 0 -47 -4 -69 -10 -65 -6 4 -10 40 -9 86
l2 79 38 0 39 0 -2 -87z m532 2 c0 -104 -18 -114 -22 -12 -2 56 -6 72 -18 72
-12 0 -16 -16 -18 -72 -4 -102 -22 -92 -22 12 l0 85 40 0 40 0 0 -85z m11270
70 c0 -12 -18 -15 -105 -15 -87 0 -105 3 -105 15 0 12 18 15 105 15 87 0 105
-3 105 -15z m290 0 c0 -12 -19 -15 -110 -15 -91 0 -110 3 -110 15 0 12 19 15
110 15 91 0 110 -3 110 -15z m300 0 c0 -12 -19 -15 -110 -15 -91 0 -110 3
-110 15 0 12 19 15 110 15 91 0 110 -3 110 -15z m1615 0 c0 -6 -46 -11 -112
-13 -97 -2 -113 0 -113 13 0 13 16 15 113 13 66 -2 112 -7 112 -13z m295 0 c0
-12 -19 -15 -109 -15 -100 0 -131 6 -114 24 3 3 55 6 115 6 89 0 108 -3 108
-15z m298 -2 c3 -10 -24 -13 -112 -13 -98 0 -116 2 -116 15 0 13 17 15 112 13
78 -2 113 -7 116 -15z m-1900 -102 c5 -144 2 -151 -53 -151 l-45 0 0 123 c0
68 3 127 7 131 4 4 25 6 48 4 l40 -3 3 -104z m912 -21 l0 -130 -45 0 -45 0 0
130 0 130 45 0 45 0 0 -130z m-11255 95 c0 -11 -8 -21 -17 -23 -14 -3 -18 3
-18 23 0 20 4 26 18 23 9 -2 17 -12 17 -23z m243 -3 c3 -17 -2 -22 -17 -22
-20 0 -21 6 -12 48 3 13 27 -9 29 -26z m110 0 c3 -17 -2 -22 -17 -22 -14 0
-21 6 -21 18 0 38 33 41 38 4z m126 22 c24 -9 20 -44 -4 -44 -15 0 -20 7 -20
25 0 27 1 28 24 19z m1234 -22 c3 -17 -2 -22 -17 -22 -14 0 -21 6 -21 18 0 38
33 41 38 4z m112 -3 c0 -12 -7 -19 -20 -19 -19 0 -28 28 -14 43 11 11 34 -5
34 -24z m138 3 c3 -17 -2 -22 -17 -22 -16 0 -21 6 -21 24 0 31 34 29 38 -2z
m102 1 c0 -14 -6 -23 -15 -23 -9 0 -15 9 -15 23 0 14 6 24 15 24 9 0 15 -10
15 -24z m250 2 c0 -18 -5 -25 -20 -25 -20 0 -28 28 -13 43 15 16 33 6 33 -18z
m2890 -30 c-13 -14 -28 -25 -34 -25 -6 1 3 12 19 25 39 32 45 32 15 0z m4240
-33 l0 -45 -22 20 c-28 25 -62 43 -80 43 -7 -1 1 -7 17 -14 17 -7 43 -28 58
-46 27 -31 28 -35 25 -144 l-3 -111 -97 0 c-53 0 -99 3 -102 6 -4 3 -6 59 -7
125 l0 119 29 25 c16 14 37 31 48 38 10 7 -2 2 -28 -12 -35 -18 -48 -21 -48
-11 0 7 6 16 13 19 10 5 10 7 0 12 -7 3 -13 10 -13 14 0 10 102 17 168 11 l42
-3 0 -46z m2800 1 l0 -46 -22 20 c-13 11 -38 28 -55 37 -30 15 -36 15 -70 1
-21 -9 -48 -26 -60 -37 l-23 -21 0 49 0 49 115 -3 115 -3 0 -46z m-14326 23
c41 -24 63 -53 68 -91 3 -19 -3 -20 -116 -23 l-119 -3 7 33 c8 38 40 76 81 94
38 17 32 18 79 -10z m10616 -161 l0 -185 -35 0 -35 0 0 185 0 185 35 0 35 0 0
-185z m70 0 l0 -185 -30 0 -30 0 0 185 0 185 30 0 30 0 0 -185z m1130 138 l0
-47 -27 26 c-44 42 -78 51 -116 32 -18 -9 -42 -26 -54 -37 l-23 -20 0 46 0 47
110 0 110 0 0 -47z m300 0 l0 -46 -22 20 c-13 11 -38 28 -57 38 -32 16 -35 16
-79 -7 -25 -13 -48 -30 -50 -38 -3 -10 4 -7 19 7 43 39 75 45 118 24 63 -32
71 -54 71 -185 l0 -114 -107 1 -108 2 -2 173 -2 172 110 0 109 0 0 -47z m1615
0 c0 -43 -8 -56 -18 -29 -3 7 -26 23 -51 35 -43 21 -46 21 -78 5 -18 -9 -43
-26 -55 -37 l-23 -20 0 47 0 47 113 -3 112 -3 0 -42z m295 0 l0 -46 -22 20
c-13 11 -38 28 -56 37 -32 16 -35 16 -78 -5 -25 -12 -48 -28 -51 -35 -10 -27
-18 -13 -16 28 1 24 2 44 2 46 1 1 51 2 111 2 l110 0 0 -47z m-11160 -75 l0
-108 -50 0 -50 0 0 104 c0 115 -1 113 68 112 l32 0 0 -108z m800 2 l0 -110
-50 0 -50 0 0 103 c0 57 3 107 7 110 3 4 26 7 50 7 l43 0 0 -110z m9025 -45
l0 -140 -82 -3 -83 -3 0 146 0 146 83 -3 82 -3 0 -140z m197 134 c2 -5 2 -27
0 -48 l-4 -38 -28 29 c-35 34 -51 35 -87 4 -27 -23 -28 -28 -34 -143 l-5 -118
-2 163 -2 162 79 0 c47 0 81 -4 83 -11z m200 -124 c2 -75 2 -140 0 -145 -2 -6
-39 -10 -83 -10 l-79 0 0 138 c0 76 3 142 7 145 3 4 39 7 79 7 l73 0 3 -135z
m-1342 105 c63 -32 70 -49 70 -177 l0 -113 -42 0 c-24 0 -73 -3 -110 -7 l-68
-6 0 119 c0 134 6 151 68 184 45 24 36 24 82 0z m1908 1 c72 -37 77 -49 77
-180 l0 -116 -93 -1 c-141 -3 -132 -10 -132 116 0 60 3 116 7 125 5 14 87 75
100 75 2 0 20 -9 41 -19z m301 0 c64 -33 72 -55 69 -184 l-3 -112 -107 -3
-108 -3 0 124 c0 136 3 142 75 180 37 20 29 20 74 -2z m341 -38 l31 -34 -3
-112 -3 -112 -113 -3 -114 -3 4 120 c3 111 5 121 28 146 57 62 114 62 170 -2z
m-14850 -94 l0 -120 -37 3 -38 4 3 114 c3 90 7 118 19 127 11 9 21 9 34 2 17
-9 19 -23 19 -130z m1072 124 c15 -14 18 -32 18 -130 l0 -114 -37 3 -38 3 -3
109 c-2 91 0 112 14 127 21 23 23 23 46 2z m7261 -7 c33 -31 39 -54 35 -141
l-3 -70 -77 -3 -78 -3 0 95 c0 93 0 95 31 120 38 32 59 33 92 2z m1588 -5 c28
-28 29 -33 29 -120 l0 -91 -80 0 -80 0 0 91 c0 87 1 92 29 120 16 16 39 29 51
29 12 0 35 -13 51 -29z m375 14 c33 -23 45 -65 42 -146 l-3 -74 -77 -3 -78 -3
0 91 c0 88 1 93 29 121 33 32 56 36 87 14z m-7536 -12 c1 -10 3 -75 6 -145 5
-91 3 -128 -5 -128 -7 0 -11 32 -11 94 0 93 0 95 -31 120 -38 32 -60 33 -96 2
-26 -23 -28 -30 -34 -123 -5 -94 -6 -93 -7 50 l-2 147 90 0 c79 0 90 -2 90
-17z m248 -130 c-1 -143 -2 -144 -7 -50 -6 95 -7 100 -36 123 -39 31 -58 30
-97 -5 -31 -28 -33 -33 -39 -123 -5 -87 -6 -84 -7 55 l-2 147 95 0 95 0 -2
-147z m250 0 c2 -93 -1 -143 -8 -143 -6 0 -10 36 -10 94 0 93 0 95 -31 120
-38 32 -60 33 -96 2 -26 -23 -28 -30 -34 -123 -5 -94 -6 -92 -7 50 l-2 148 93
-3 92 -3 3 -142z m1220 0 c-1 -144 -1 -145 -7 -49 -6 94 -7 99 -36 122 -36 29
-51 30 -92 5 -34 -21 -40 -42 -46 -166 -2 -33 -4 6 -5 88 l-2 147 95 0 95 0
-2 -147z m246 86 c9 -95 7 -229 -4 -229 -6 0 -10 38 -10 94 0 93 0 95 -31 120
-38 32 -60 33 -96 2 -26 -23 -28 -30 -34 -123 -5 -94 -6 -93 -7 50 l-2 147 89
0 88 0 7 -61z m244 -86 c-1 -140 -2 -143 -7 -53 -4 52 -10 101 -14 108 -5 6
-22 19 -40 28 -29 15 -33 15 -63 -1 -42 -23 -46 -32 -54 -140 -6 -85 -7 -82
-8 58 l-2 147 95 0 95 0 -2 -147z m2995 116 c13 -18 17 -38 15 -65 l-4 -39
-13 47 c-7 26 -19 53 -27 59 -8 6 -14 16 -14 21 0 16 23 3 43 -23z m-4105 -21
c3 -16 -6 -18 -82 -18 -80 0 -86 1 -86 20 0 20 5 21 82 18 70 -3 83 -6 86 -20z
m1887 -70 l-21 -93 -167 -3 c-140 -2 -167 0 -167 12 0 8 16 51 36 95 l37 81
152 0 152 0 -22 -92z m361 40 c-4 -29 -9 -72 -12 -95 l-6 -43 -169 0 c-93 0
-169 3 -169 8 0 4 12 46 27 95 l27 87 154 0 155 0 -7 -52z m348 30 c11 -43 7
-157 -7 -165 -7 -4 -32 -32 -56 -61 -24 -28 -48 -52 -53 -52 -5 0 12 25 37 55
l47 55 -151 0 c-114 0 -151 3 -151 13 0 18 20 139 26 160 5 15 21 17 154 17
145 0 148 0 154 -22z m431 -20 c4 -24 5 -65 3 -93 l-3 -50 -197 -3 -198 -2 0
88 c0 49 3 92 7 95 3 4 91 7 194 7 l188 0 6 -42z m345 40 c0 -2 7 -41 15 -88
8 -47 15 -88 15 -92 0 -4 -68 -9 -150 -10 l-150 -3 40 -49 c22 -27 38 -51 35
-54 -3 -3 -6 -3 -8 -1 -1 2 -26 32 -55 66 l-52 61 0 86 0 86 155 0 c85 0 155
-1 155 -2z m367 -78 c36 -119 48 -110 -141 -110 -91 0 -167 3 -169 8 -3 4 -8
46 -12 95 l-7 88 153 -3 153 -3 23 -75z m63 -12 c0 -50 -2 -89 -4 -87 -3 2
-11 33 -20 69 -9 36 -18 75 -22 88 -5 19 -3 22 20 22 l26 0 0 -92z m118 0 c-2
-62 -7 -93 -15 -96 -10 -3 -13 20 -13 92 0 80 3 96 15 96 13 0 15 -15 13 -92z
m72 73 c-5 -11 -10 -49 -10 -85 l0 -66 60 0 60 0 1 33 c0 27 2 29 9 12 5 -11
9 -30 9 -42 1 -22 -2 -23 -79 -23 l-80 0 0 79 c0 88 5 111 26 111 11 0 12 -4
4 -19z m-7570 -147 l0 -125 -37 3 -38 3 -3 108 c-2 60 -1 115 2 123 3 8 19 14
41 14 l35 0 0 -126z m530 1 l0 -125 -40 0 -40 0 0 125 0 125 40 0 40 0 0 -125z
m3048 -12 l-1 -128 -7 95 c-3 53 -10 101 -14 108 -13 22 -60 40 -81 32 -44
-17 -54 -41 -58 -140 -3 -88 -3 -85 -5 33 l-2 127 85 0 85 0 -2 -127z m5229
-66 c-2 -34 -3 -6 -3 63 0 69 1 97 3 63 2 -35 2 -91 0 -126z m-6381 116 c-1
-21 -3 -59 -4 -85 -2 -43 -4 -48 -26 -48 -19 0 -24 6 -30 38 -3 20 -6 58 -6
85 0 47 0 47 34 47 32 0 33 -1 32 -37z m244 -10 c0 -89 -10 -123 -35 -123 -24
0 -31 24 -34 123 l-2 47 36 0 35 0 0 -47z m246 -15 c-4 -110 -4 -108 -30 -108
-19 0 -24 6 -30 38 -3 20 -6 58 -6 85 0 47 0 47 34 47 l34 0 -2 -62z m1224 15
c0 -89 -10 -123 -35 -123 -25 0 -35 34 -35 123 l0 47 35 0 35 0 0 -47z m246
38 c-3 -5 -6 -43 -7 -85 -1 -72 -2 -76 -24 -76 -18 0 -24 7 -29 38 -3 20 -6
58 -6 85 l0 47 36 0 c19 0 33 -4 30 -9z m244 -38 c0 -27 -3 -65 -6 -85 -6 -32
-11 -38 -30 -38 -13 0 -24 6 -24 13 -1 6 -3 45 -7 85 l-5 72 36 0 36 0 0 -47z
m-4280 -63 l0 -90 -87 1 c-54 1 -91 6 -95 13 -6 8 -8 8 -8 -1 0 -7 -11 -13
-25 -13 -25 0 -25 1 -25 90 l0 90 120 0 120 0 0 -90z m2790 -30 l0 -50 -50 0
-50 0 0 50 0 50 50 0 50 0 0 -50z m-430 -11 c0 -12 -7 -19 -20 -19 -19 0 -28
28 -14 43 11 11 34 -5 34 -24z m-350 1 c0 -13 -7 -20 -20 -20 -13 0 -20 7 -20
20 0 13 7 20 20 20 13 0 20 -7 20 -20z m100 0 c0 -11 -7 -20 -15 -20 -8 0 -15
9 -15 20 0 11 7 20 15 20 8 0 15 -9 15 -20z m140 0 c0 -13 -7 -20 -20 -20 -13
0 -20 7 -20 20 0 13 7 20 20 20 13 0 20 -7 20 -20z m250 0 c0 -13 -7 -20 -20
-20 -13 0 -20 7 -20 20 0 13 7 20 20 20 13 0 20 -7 20 -20z m100 0 c0 -11 -7
-20 -15 -20 -8 0 -15 9 -15 20 0 11 7 20 15 20 8 0 15 -9 15 -20z m1120 0 c0
-13 -7 -20 -20 -20 -13 0 -20 7 -20 20 0 13 7 20 20 20 13 0 20 -7 20 -20z
m110 0 c0 -13 -7 -20 -20 -20 -13 0 -20 7 -20 20 0 13 7 20 20 20 13 0 20 -7
20 -20z m140 0 c0 -13 -7 -20 -20 -20 -13 0 -20 7 -20 20 0 13 7 20 20 20 13
0 20 -7 20 -20z m100 0 c0 -11 -7 -20 -15 -20 -8 0 -15 9 -15 20 0 11 7 20 15
20 8 0 15 -9 15 -20z m140 0 c0 -13 -7 -20 -20 -20 -13 0 -20 7 -20 20 0 13 7
20 20 20 13 0 20 -7 20 -20z m110 0 c0 -13 -7 -20 -20 -20 -13 0 -20 7 -20 20
0 13 7 20 20 20 13 0 20 -7 20 -20z m3390 -45 c0 -12 -13 -15 -55 -15 -42 0
-55 3 -55 15 0 12 13 15 55 15 42 0 55 -3 55 -15z m1588 -2 c3 -10 -13 -13
-57 -13 -57 0 -71 6 -54 24 12 12 106 2 111 -11z m382 2 c0 -5 -25 -11 -55
-13 -45 -2 -55 0 -55 13 0 13 10 15 55 13 30 -2 55 -7 55 -13z"/>
<path d="M9340 1550 c0 -39 1 -40 35 -40 33 0 35 2 35 34 0 26 -5 35 -22 40
-43 11 -48 7 -48 -34z"/>
<path d="M9470 1555 l0 -35 296 0 295 0 -3 33 -3 32 -292 2 -293 2 0 -34z"/>
<path d="M10117 1584 c-4 -4 -7 -22 -7 -41 0 -32 1 -33 41 -33 l40 0 -3 38
c-3 33 -6 37 -33 40 -17 2 -34 0 -38 -4z"/>
<path d="M10120 1421 c-5 -11 -10 -69 -10 -130 l0 -111 40 0 39 0 0 111 c0 62
-4 120 -10 130 -13 25 -45 24 -59 0z"/>
<path d="M10143 1152 c-29 -3 -33 -7 -33 -33 0 -27 3 -29 38 -29 36 0 39 2 40
30 1 35 -2 37 -45 32z"/>
<path d="M10111 950 l-2 -110 41 0 40 0 0 110 0 110 -39 0 -39 0 -1 -110z"/>
<path d="M10114 796 c-13 -33 0 -51 36 -51 32 0 35 2 35 30 0 27 -4 30 -33 33
-22 2 -34 -2 -38 -12z"/>
<path d="M10110 560 l0 -150 40 0 40 0 0 150 0 150 -40 0 -40 0 0 -150z"/>
<path d="M9353 1433 c-10 -3 -13 -39 -13 -129 l0 -124 35 0 35 0 0 118 c0 134
-9 155 -57 135z"/>
<path d="M9340 1120 c0 -28 3 -30 35 -30 32 0 35 2 35 30 0 28 -3 30 -35 30
-32 0 -35 -2 -35 -30z"/>
<path d="M9340 950 l0 -110 35 0 35 0 0 110 0 110 -35 0 -35 0 0 -110z"/>
<path d="M9340 775 c0 -33 2 -35 35 -35 33 0 35 2 35 35 0 33 -2 35 -35 35
-33 0 -35 -2 -35 -35z"/>
<path d="M9340 560 l0 -150 35 0 35 0 0 150 0 150 -35 0 -35 0 0 -150z"/>
<path d="M4448 1343 l-318 -3 1 -208 c0 -184 2 -202 13 -166 30 95 103 169
224 226 75 36 106 34 200 -14 75 -38 160 -124 184 -189 16 -44 17 -42 17 159
1 111 0 201 -1 200 -2 -2 -146 -4 -320 -5z"/>
<path d="M4022 1313 c-5 -10 -10 -51 -11 -90 l-2 -73 40 0 41 0 0 78 c0 47 -5
83 -12 90 -17 17 -46 15 -56 -5z"/>
<path d="M4827 1323 c-4 -3 -7 -44 -7 -90 l0 -83 35 0 35 0 0 78 c0 47 -5 83
-12 90 -13 13 -41 16 -51 5z"/>
<path d="M9540 740 l0 -30 220 0 220 0 0 30 0 30 -220 0 -220 0 0 -30z"/>
<path d="M9547 683 c-4 -3 -7 -21 -7 -40 l0 -33 25 16 c24 16 27 15 44 0 17
-16 19 -16 23 6 8 45 -1 58 -41 58 -21 0 -41 -3 -44 -7z"/>
<path d="M9670 628 l0 -62 28 26 c52 49 65 51 111 18 l41 -30 0 55 0 55 -90 0
-90 0 0 -62z"/>
<path d="M9890 650 l0 -40 25 16 c24 16 27 16 45 -1 20 -18 20 -17 20 23 l0
42 -45 0 -45 0 0 -40z"/>
<path d="M9560 610 c-17 -17 -20 -33 -20 -110 l0 -90 45 0 45 0 0 93 c0 78 -3
97 -18 110 -24 22 -28 21 -52 -3z"/>
<path d="M9911 611 c-18 -18 -21 -33 -21 -111 l0 -90 45 0 46 0 -3 96 c-3 86
-5 98 -25 111 -19 13 -24 12 -42 -6z"/>
<path d="M9717 599 c-27 -20 -57 -67 -57 -89 0 -6 37 -10 100 -10 95 0 100 1
100 21 0 27 -71 99 -96 99 -11 0 -32 -10 -47 -21z"/>
<path d="M3020 1026 c0 -14 5 -26 10 -26 6 0 10 9 10 19 0 11 -4 23 -10 26 -6
4 -10 -5 -10 -19z"/>
<path d="M4025 936 c-12 -17 -15 -43 -13 -92 l3 -69 38 -3 37 -3 0 80 c0 59
-4 84 -16 95 -21 22 -31 20 -49 -8z"/>
<path d="M4832 948 c-7 -7 -12 -44 -12 -95 l0 -83 35 0 35 0 0 83 c0 80 -9
107 -35 107 -6 0 -16 -5 -23 -12z"/>
<path d="M13830 852 c-8 -2 -25 -14 -37 -25 -21 -18 -23 -30 -23 -114 l0 -93
69 0 68 0 6 80 c4 44 2 91 -3 105 -10 27 -57 55 -80 47z"/>
<path d="M14230 853 c-8 -3 -25 -15 -37 -26 -21 -18 -23 -30 -23 -114 l0 -93
70 0 71 0 -3 102 c-3 102 -3 102 -33 119 -16 9 -37 14 -45 12z"/>
<path d="M4411 784 l-31 -26 0 -105 0 -104 73 3 72 3 -1 103 c0 88 -3 105 -20
121 -33 33 -59 34 -93 5z"/>
<path d="M11464 757 l-29 -25 0 -169 0 -168 85 -1 c63 -1 86 2 90 12 3 7 3 85
0 173 -6 180 -9 189 -77 198 -32 4 -45 1 -69 -20z m56 -17 c0 -16 -7 -20 -32
-20 l-33 1 24 19 c30 25 41 25 41 0z m41 10 c27 -15 24 -30 -6 -30 -18 0 -25
5 -25 20 0 23 4 24 31 10z m-41 -56 c0 -11 -8 -14 -32 -12 -46 4 -49 28 -4 28
26 0 36 -4 36 -16z m70 1 c0 -10 -10 -15 -30 -15 -20 0 -30 5 -30 15 0 10 10
15 30 15 20 0 30 -5 30 -15z m-70 -105 c0 -16 -7 -20 -35 -20 -28 0 -35 4 -35
20 0 16 7 20 35 20 28 0 35 -4 35 -20z m70 0 c0 -16 -7 -20 -30 -20 -23 0 -30
4 -30 20 0 16 7 20 30 20 23 0 30 -4 30 -20z m-70 -45 c0 -10 -11 -15 -35 -15
-24 0 -35 5 -35 15 0 10 11 15 35 15 24 0 35 -5 35 -15z m70 0 c0 -10 -10 -15
-30 -15 -20 0 -30 5 -30 15 0 10 10 15 30 15 20 0 30 -5 30 -15z m-70 -45 c0
-16 -7 -20 -35 -20 -28 0 -35 4 -35 20 0 16 7 20 35 20 28 0 35 -4 35 -20z
m70 0 c0 -16 -7 -20 -30 -20 -23 0 -30 4 -30 20 0 16 7 20 30 20 23 0 30 -4
30 -20z m0 -65 c0 -24 -2 -25 -70 -25 -68 0 -70 1 -70 25 0 24 2 25 70 25 68
0 70 -1 70 -25z"/>
<path d="M12119 751 l-29 -29 0 -167 0 -166 90 2 90 2 0 164 0 165 -29 29
c-40 39 -82 39 -122 0z m112 -6 c23 -15 4 -23 -53 -23 -62 0 -62 0 -41 18 21
16 70 19 94 5z m19 -49 c0 -11 -16 -14 -70 -14 -54 0 -70 3 -70 14 0 11 16 14
70 14 54 0 70 -3 70 -14z m0 -105 c0 -17 -8 -19 -70 -19 -62 0 -70 2 -70 19 0
17 8 19 70 19 62 0 70 -2 70 -19z m0 -46 c0 -12 -14 -15 -70 -15 -56 0 -70 3
-70 15 0 12 14 15 70 15 56 0 70 -3 70 -15z m0 -45 c0 -18 -7 -20 -70 -20 -63
0 -70 2 -70 20 0 18 7 20 70 20 63 0 70 -2 70 -20z m0 -65 c0 -24 -2 -25 -70
-25 -68 0 -70 1 -70 25 0 24 2 25 70 25 68 0 70 -1 70 -25z"/>
<path d="M10430 608 l0 -63 23 26 c12 15 37 36 55 49 29 20 36 21 64 9 17 -7
46 -28 65 -46 l33 -34 0 61 0 60 -120 0 -120 0 0 -62z"/>
<path d="M12720 579 c0 -5 5 -7 10 -4 6 3 10 8 10 11 0 2 -4 4 -10 4 -5 0 -10
-5 -10 -11z"/>
<path d="M15350 580 c0 -5 5 -10 10 -10 6 0 10 5 10 10 0 6 -4 10 -10 10 -5 0
-10 -4 -10 -10z"/>
<path d="M15520 579 c0 -5 5 -7 10 -4 6 3 10 8 10 11 0 2 -4 4 -10 4 -5 0 -10
-5 -10 -11z"/>
<path d="M12850 580 c0 -5 5 -10 10 -10 6 0 10 5 10 10 0 6 -4 10 -10 10 -5 0
-10 -4 -10 -10z"/>
<path d="M13010 580 c0 -5 5 -10 10 -10 6 0 10 5 10 10 0 6 -4 10 -10 10 -5 0
-10 -4 -10 -10z"/>
<path d="M13150 580 c0 -5 5 -10 10 -10 6 0 10 5 10 10 0 6 -4 10 -10 10 -5 0
-10 -4 -10 -10z"/>
<path d="M13310 580 c0 -5 5 -10 10 -10 6 0 10 5 10 10 0 6 -4 10 -10 10 -5 0
-10 -4 -10 -10z"/>
<path d="M14760 580 c0 -5 5 -10 10 -10 6 0 10 5 10 10 0 6 -4 10 -10 10 -5 0
-10 -4 -10 -10z"/>
<path d="M14920 580 c0 -5 4 -10 9 -10 6 0 13 5 16 10 3 6 -1 10 -9 10 -9 0
-16 -4 -16 -10z"/>
<path d="M15060 580 c0 -5 5 -10 10 -10 6 0 10 5 10 10 0 6 -4 10 -10 10 -5 0
-10 -4 -10 -10z"/>
<path d="M15220 580 c0 -5 5 -10 10 -10 6 0 10 5 10 10 0 6 -4 10 -10 10 -5 0
-10 -4 -10 -10z"/>
<path d="M4020 561 c-5 -11 -10 -51 -10 -90 l0 -71 40 0 40 0 0 78 c0 47 -5
83 -12 90 -18 18 -46 14 -58 -7z"/>
<path d="M4827 573 c-4 -3 -7 -44 -7 -90 l0 -83 35 0 35 0 0 78 c0 47 -5 83
-12 90 -13 13 -41 16 -51 5z"/>
<path d="M13815 528 c-39 -21 -45 -39 -45 -130 l0 -89 73 3 72 3 0 88 c0 85
-1 90 -28 113 -31 27 -43 29 -72 12z"/>
<path d="M14196 515 c-24 -23 -26 -30 -26 -115 l0 -90 70 0 70 0 0 94 c0 90
-1 96 -26 115 -35 27 -55 26 -88 -4z"/>
<path d="M12910 500 c0 -38 2 -40 30 -40 28 0 30 2 30 40 0 38 -2 40 -30 40
-28 0 -30 -2 -30 -40z"/>
<path d="M15120 500 c0 -38 2 -40 30 -40 28 0 30 2 30 40 0 38 -2 40 -30 40
-28 0 -30 -2 -30 -40z"/>
<path d="M8936 529 c-25 -20 -27 -25 -24 -98 l3 -76 54 0 54 0 -2 75 c-2 60
-7 79 -23 98 -26 27 -29 27 -62 1z"/>
<path d="M10519 531 c-22 -17 -24 -27 -24 -98 l0 -78 55 0 55 0 0 78 c0 71 -2
81 -24 98 -13 10 -27 19 -31 19 -4 0 -18 -9 -31 -19z"/>
<path d="M10905 525 c-22 -21 -25 -33 -25 -93 0 -68 1 -70 28 -75 15 -3 40 -4
56 -3 l29 2 -2 74 c-2 60 -7 79 -23 98 -27 28 -33 28 -63 -3z"/>
<path d="M900 375 c0 -95 0 -95 25 -95 25 0 25 0 25 95 0 95 0 95 -25 95 -25
0 -25 0 -25 -95z"/>
<path d="M1430 375 c0 -88 1 -95 20 -95 19 0 20 7 20 95 0 88 -1 95 -20 95
-19 0 -20 -7 -20 -95z"/>
<path d="M1087 373 c-4 -3 -7 -21 -7 -40 0 -23 5 -33 15 -33 11 0 15 11 15 40
0 38 -8 49 -23 33z"/>
<path d="M1147 373 c-4 -3 -7 -21 -7 -40 0 -23 5 -33 15 -33 11 0 15 11 15 40
0 38 -8 49 -23 33z"/>
<path d="M1207 373 c-4 -3 -7 -21 -7 -40 0 -23 5 -33 15 -33 11 0 15 11 15 40
0 38 -8 49 -23 33z"/>
<path d="M1267 373 c-4 -3 -7 -21 -7 -40 0 -23 5 -33 15 -33 11 0 15 11 15 40
0 38 -8 49 -23 33z"/>
<path d="M10661 1774 c0 -11 3 -14 6 -6 3 7 2 16 -1 19 -3 4 -6 -2 -5 -13z"/>
<path d="M1180 1750 c0 -5 5 -10 11 -10 5 0 7 5 4 10 -3 6 -8 10 -11 10 -2 0
-4 -4 -4 -10z"/>
<path d="M8832 1738 c-7 -7 -12 -18 -12 -25 0 -7 -12 -13 -27 -14 l-28 -1 25
-8 c19 -6 20 -8 6 -9 -14 -1 -17 -6 -12 -23 3 -13 6 -47 6 -75 l0 -53 60 0
c33 0 60 4 60 10 0 6 -9 10 -20 10 -16 0 -20 7 -20 35 0 23 5 35 13 35 11 0
37 39 37 55 0 3 -24 6 -52 7 l-53 1 55 7 c30 4 46 7 35 8 -11 1 -25 12 -30 24
-12 27 -27 32 -43 16z m-12 -128 c0 -5 -4 -10 -10 -10 -5 0 -10 5 -10 10 0 6
5 10 10 10 6 0 10 -4 10 -10z m40 1 c0 -5 -7 -11 -15 -15 -15 -5 -20 5 -8 17
9 10 23 9 23 -2z m0 -48 c0 -8 -5 -13 -12 -11 -18 6 -21 25 -3 25 8 0 15 -7
15 -14z m-40 -3 c0 -5 -4 -10 -10 -10 -5 0 -10 5 -10 10 0 6 5 10 10 10 6 0
10 -4 10 -10z"/>
<path d="M10644 1725 c-9 -14 -24 -25 -34 -25 -16 0 -17 -4 -9 -32 5 -18 9
-57 9 -85 l0 -53 60 0 60 0 0 54 c0 29 3 68 6 85 6 26 4 31 -13 31 -11 0 -25
11 -31 25 -6 14 -16 25 -22 25 -5 0 -17 -11 -26 -25z m64 -42 c-16 -2 -40 -2
-55 0 -16 2 -3 4 27 4 30 0 43 -2 28 -4z m12 -74 c0 -5 -4 -9 -10 -9 -5 0 -10
-7 -10 -15 0 -8 5 -15 10 -15 6 0 10 -4 10 -10 0 -5 -7 -10 -15 -10 -10 0 -15
10 -15 30 0 22 -4 28 -15 24 -8 -4 -15 -1 -15 4 0 12 29 20 48 14 6 -2 12 -8
12 -13z m-70 1 c0 -5 -7 -10 -15 -10 -8 0 -15 5 -15 10 0 6 7 10 15 10 8 0 15
-4 15 -10z m-8 -52 c-6 -6 -15 -8 -19 -4 -4 4 -1 11 7 16 19 12 27 3 12 -12z
m38 2 c0 -5 -4 -10 -10 -10 -5 0 -10 5 -10 10 0 6 5 10 10 10 6 0 10 -4 10
-10z"/>
<path d="M1133 1703 c-74 -35 -144 -102 -183 -175 -28 -51 -34 -76 -38 -140
l-5 -78 282 0 281 0 0 38 c-1 134 -79 269 -195 337 -74 44 -86 45 -142 18z"/>
<path d="M8880 1584 c0 -8 5 -12 10 -9 6 4 8 11 5 16 -9 14 -15 11 -15 -7z"/>
<path d="M8791 1180 l-3 -340 62 0 63 0 -6 203 c-4 111 -7 264 -7 340 l0 137
-52 0 -53 0 -4 -340z"/>
<path d="M10611 1182 l-4 -339 62 -2 61 -2 0 123 c0 68 -3 221 -7 341 l-6 217
-51 0 -51 0 -4 -338z"/>
<path d="M11460 1294 c-201 -73 -369 -135 -375 -137 -19 -7 17 -57 41 -57 13
0 24 -8 27 -20 5 -20 14 -20 701 -20 688 0 696 0 696 20 0 14 7 20 21 20 24 0
49 22 49 44 0 9 -2 16 -4 16 -1 0 -104 36 -227 81 -463 166 -529 189 -546 188
-10 -1 -182 -61 -383 -135z m220 -29 l0 -75 170 0 170 0 0 69 c0 39 3 72 8 74
8 5 476 -164 488 -176 4 -4 -296 -7 -666 -7 -371 0 -670 4 -664 8 5 5 108 44
229 87 121 43 227 82 235 86 27 15 30 10 30 -66z m-480 -175 c0 -5 -7 -10 -15
-10 -8 0 -15 5 -15 10 0 6 7 10 15 10 8 0 15 -4 15 -10z m60 0 c0 -5 -7 -10
-15 -10 -8 0 -15 5 -15 10 0 6 7 10 15 10 8 0 15 -4 15 -10z m50 0 c0 -5 -7
-10 -15 -10 -8 0 -15 5 -15 10 0 6 7 10 15 10 8 0 15 -4 15 -10z m50 0 c0 -5
-7 -10 -15 -10 -8 0 -15 5 -15 10 0 6 7 10 15 10 8 0 15 -4 15 -10z m55 0 c3
-5 -1 -10 -9 -10 -9 0 -16 5 -16 10 0 6 4 10 9 10 6 0 13 -4 16 -10z m55 0 c0
-5 -7 -10 -15 -10 -8 0 -15 5 -15 10 0 6 7 10 15 10 8 0 15 -4 15 -10z m50 0
c0 -5 -7 -10 -15 -10 -8 0 -15 5 -15 10 0 6 7 10 15 10 8 0 15 -4 15 -10z m55
0 c3 -5 -1 -10 -9 -10 -9 0 -16 5 -16 10 0 6 4 10 9 10 6 0 13 -4 16 -10z m55
0 c0 -5 -7 -10 -15 -10 -8 0 -15 5 -15 10 0 6 7 10 15 10 8 0 15 -4 15 -10z
m50 0 c0 -5 -7 -10 -15 -10 -8 0 -15 5 -15 10 0 6 7 10 15 10 8 0 15 -4 15
-10z m55 0 c3 -5 -1 -10 -9 -10 -9 0 -16 5 -16 10 0 6 4 10 9 10 6 0 13 -4 16
-10z m55 0 c0 -5 -7 -10 -15 -10 -8 0 -15 5 -15 10 0 6 7 10 15 10 8 0 15 -4
15 -10z m50 0 c0 -5 -7 -10 -15 -10 -8 0 -15 5 -15 10 0 6 7 10 15 10 8 0 15
-4 15 -10z m50 0 c0 -5 -7 -10 -16 -10 -8 0 -12 5 -9 10 3 6 10 10 16 10 5 0
9 -4 9 -10z m60 0 c0 -5 -7 -10 -15 -10 -8 0 -15 5 -15 10 0 6 7 10 15 10 8 0
15 -4 15 -10z m50 0 c0 -5 -7 -10 -15 -10 -8 0 -15 5 -15 10 0 6 7 10 15 10 8
0 15 -4 15 -10z m60 0 c0 -5 -7 -10 -15 -10 -8 0 -15 5 -15 10 0 6 7 10 15 10
8 0 15 -4 15 -10z m50 0 c0 -5 -7 -10 -15 -10 -8 0 -15 5 -15 10 0 6 7 10 15
10 8 0 15 -4 15 -10z m50 0 c0 -5 -7 -10 -15 -10 -8 0 -15 5 -15 10 0 6 7 10
15 10 8 0 15 -4 15 -10z m55 0 c3 -5 -3 -10 -15 -10 -12 0 -18 5 -15 10 3 6
10 10 15 10 5 0 12 -4 15 -10z m55 0 c0 -5 -7 -10 -15 -10 -8 0 -15 5 -15 10
0 6 7 10 15 10 8 0 15 -4 15 -10z m50 0 c0 -5 -7 -10 -15 -10 -8 0 -15 5 -15
10 0 6 7 10 15 10 8 0 15 -4 15 -10z m50 0 c0 -5 -7 -10 -16 -10 -8 0 -12 5
-9 10 3 6 10 10 16 10 5 0 9 -4 9 -10z m55 0 c3 -5 -1 -10 -9 -10 -9 0 -16 5
-16 10 0 6 4 10 9 10 6 0 13 -4 16 -10z m55 0 c0 -5 -7 -10 -15 -10 -8 0 -15
5 -15 10 0 6 7 10 15 10 8 0 15 -4 15 -10z m50 0 c0 -5 -7 -10 -15 -10 -8 0
-15 5 -15 10 0 6 7 10 15 10 8 0 15 -4 15 -10z"/>
<path d="M2975 1383 c-27 -7 -73 -41 -85 -62 -5 -10 -6 -27 -3 -39 5 -21 11
-22 129 -22 l124 0 0 33 c0 40 -22 63 -77 83 -40 14 -55 15 -88 7z m-31 -104
c3 -3 -5 -5 -19 -5 -13 0 -22 3 -19 7 4 8 30 6 38 -2z m181 1 c-5 -8 -154 -3
-164 6 -2 2 35 4 83 4 53 0 85 -4 81 -10z"/>
<path d="M5844 1377 c-56 -21 -84 -51 -81 -86 l2 -31 126 0 126 0 1 32 c0 18
-4 38 -10 46 -31 37 -116 57 -164 39z m-18 -105 c-10 -2 -22 0 -28 6 -6 6 0 7
19 4 21 -5 23 -7 9 -10z m161 2 c-3 -3 -12 -4 -19 -1 -8 3 -5 6 6 6 11 1 17
-2 13 -5z"/>
<path d="M12898 1305 c-3 -22 -2 -46 2 -54 13 -24 20 5 12 50 l-8 44 -6 -40z"/>
<path d="M15177 1295 c-3 -22 -2 -44 3 -49 14 -14 20 14 12 54 l-8 35 -7 -40z"/>
<path d="M912 1265 l-2 -25 275 0 275 0 0 25 0 25 -273 0 -273 0 -2 -25z"/>
<path d="M7197 1243 c-4 -3 -7 -15 -7 -25 0 -17 12 -18 175 -18 l175 0 0 25 0
25 -168 0 c-93 0 -172 -3 -175 -7z"/>
<path d="M12845 1201 c-28 -16 -68 -48 -88 -70 -33 -37 -37 -47 -37 -96 l0
-55 185 0 185 0 0 53 c0 57 -16 88 -65 129 -30 25 -107 68 -122 68 -4 0 -31
-13 -58 -29z"/>
<path d="M15132 1205 c-103 -58 -132 -97 -132 -172 l0 -53 185 0 185 0 0 55
c0 49 -4 59 -37 96 -35 38 -125 99 -148 99 -5 0 -29 -11 -53 -25z"/>
<path d="M12730 890 l0 -80 175 0 175 0 0 79 0 80 -175 1 -175 0 0 -80z"/>
<path d="M15010 890 l0 -80 175 0 175 0 0 80 0 80 -175 0 -175 0 0 -80z"/>
<path d="M12700 775 c0 -24 3 -25 60 -25 57 0 60 1 60 25 0 24 -3 25 -60 25
-57 0 -60 -1 -60 -25z"/>
<path d="M12839 798 c-14 -47 -12 -48 66 -48 73 0 75 1 75 25 0 24 -2 25 -70
25 -38 0 -70 -1 -71 -2z"/>
<path d="M12990 775 c0 -24 3 -25 60 -25 57 0 60 1 60 25 0 24 -3 25 -60 25
-57 0 -60 -1 -60 -25z"/>
<path d="M14980 775 l0 -25 205 0 205 0 0 25 0 25 -205 0 -205 -1 0 -24z"/>
<path d="M12660 725 c0 -12 41 -14 245 -15 212 0 245 2 245 15 0 13 -33 15
-245 15 -204 -1 -245 -3 -245 -15z"/>
<path d="M14940 725 c0 -13 35 -15 245 -15 209 0 245 2 245 15 0 12 -36 15
-245 15 -210 0 -245 -2 -245 -15z"/>
</g>
</svg>
