<svg width="24.000000" height="24.000000" viewBox="0 0 24 24" fill="none" xmlns="http://www.w3.org/2000/svg" xmlns:xlink="http://www.w3.org/1999/xlink">
	<desc>
			Created with Pixso.
	</desc>
	<defs>
		<clipPath id="clip38_3991">
			<rect id="Teacup 5" width="24.000000" height="24.000000" fill="white" fill-opacity="0"/>
		</clipPath>
	</defs>
	<g clip-path="url(#clip38_3991)">
		<path id="path" d="M16.5 7C17.8807 7 19 5.88062 19 4.5C19 3.11938 17.8807 2 16.5 2C15.1193 2 14 3.11938 14 4.5C14 5.88062 15.1193 7 16.5 7Z" fill="#000000" fill-opacity="0" fill-rule="nonzero"/>
		<path id="path" d="M19 4.5C19 3.11938 17.8807 2 16.5 2C15.1193 2 14 3.11938 14 4.5C14 5.88062 15.1193 7 16.5 7C17.8807 7 19 5.88062 19 4.5Z" stroke="#FFFFFF" stroke-opacity="1.000000" stroke-width="1.500000"/>
		<path id="path" d="M19.9801 10.77L20.0001 10.75C20.4201 10.75 20.7501 11.0798 20.7501 11.5C20.7501 11.9199 20.4201 12.25 20.0001 12.25L19.9801 12.23L19.9801 10.77ZM12.73 18.979L12.7501 18.999C12.7505 19.4192 12.4209 19.7495 12.0009 19.75C11.5809 19.7502 11.2505 19.4207 11.2501 19.0007L11.2701 18.9807L12.73 18.979Z" fill="#000000" fill-opacity="0" fill-rule="nonzero"/>
		<path id="path" d="M20.0001 11.5L16.1851 11.5C15.9051 11.5 15.6351 11.3799 15.4451 11.1748L12.7751 8.28491C12.4501 7.92993 11.9201 7.85498 11.5101 8.10498L7.7851 10.395C7.47009 10.5898 7.47009 11.0498 7.7851 11.2449L11.5151 13.5298C11.8101 13.71 11.9951 14.0349 11.9951 14.385L12.0001 19" stroke="#FFFFFF" stroke-opacity="1.000000" stroke-width="1.500000" stroke-linejoin="round" stroke-linecap="round"/>
		<circle id="circle" cx="18.250000" cy="18.250000" r="3.750000" fill="#000000" fill-opacity="0"/>
		<circle id="circle" cx="18.250000" cy="18.250000" r="3.750000" stroke="#FFFFFF" stroke-opacity="1.000000" stroke-width="1.500000"/>
		<circle id="circle" cx="5.750000" cy="18.250000" r="3.750000" fill="#000000" fill-opacity="0"/>
		<circle id="circle" cx="5.750000" cy="18.250000" r="3.750000" stroke="#FFFFFF" stroke-opacity="1.000000" stroke-width="1.500000"/>
	</g>
</svg>
