
<svg width="130.000000" height="23.000000" viewBox="0 0 130 23" fill="none" xmlns="http://www.w3.org/2000/svg" xmlns:xlink="http://www.w3.org/1999/xlink">
	<desc>
			Created with Pixso.
	</desc>
	<defs>
		<clipPath id="clip87_11469">
			<rect id="Hotel-Pro" width="130.000000" height="23.000000" fill="white" fill-opacity="0"/>
		</clipPath>
	</defs>
	<g clip-path="url(#clip87_11469)">
		<path id="path14" d="M29.5963 20.7479C29.5963 20.8873 29.6392 20.9293 29.7818 20.9293L32.7484 20.9293C32.8909 20.9293 32.9338 20.8873 32.9338 20.7479L32.9338 12.7023L42.3901 12.7023L42.3901 20.7479C42.3901 20.8873 42.433 20.9293 42.5757 20.9293L45.5422 20.9293C45.685 20.9293 45.7279 20.8873 45.7279 20.7479L45.7279 3.62833C45.7279 3.48898 45.685 3.44682 45.5422 3.44682L42.5757 3.44682C42.433 3.44682 42.3901 3.48898 42.3901 3.62833L42.3901 11.1294L32.9338 11.1294L32.9338 3.62833C32.9338 3.48898 32.8909 3.44682 32.7484 3.44682L29.5963 3.44682L29.5963 20.7479Z" fill="#000000" fill-opacity="1.000000" fill-rule="evenodd"/>
		<path id="path14" d="M29.7818 20.9293L32.7484 20.9293C32.8909 20.9293 32.9338 20.8873 32.9338 20.7479L32.9338 12.7023L42.3901 12.7023L42.3901 20.7479C42.3901 20.8873 42.433 20.9293 42.5757 20.9293L45.5422 20.9293C45.685 20.9293 45.7279 20.8873 45.7279 20.7479L45.7279 3.62833C45.7279 3.48898 45.685 3.44682 45.5422 3.44682L42.5757 3.44682C42.433 3.44682 42.3901 3.48898 42.3901 3.62833L42.3901 11.1294L32.9338 11.1294L32.9338 3.62833C32.9338 3.48898 32.8909 3.44682 32.7484 3.44682L29.5963 3.44682L29.5963 20.7479C29.5963 20.8873 29.6392 20.9293 29.7818 20.9293Z" stroke="#000000" stroke-opacity="0" stroke-width="0.133333"/>
		<path id="path16" d="M99.0047 11.3716C98.1146 11.3716 97.4598 11.5056 97.4598 11.1901L97.4598 5.32211C97.4598 5.00655 98.1146 5.14075 99.0047 5.14075C100.197 5.14075 101.327 5.30782 102.137 5.70466C103.702 6.47163 103.898 8.21863 103.166 9.51617C102.514 10.6719 100.435 11.3716 99.0047 11.3716ZM94.2458 3.62833L94.2458 20.8689L97.336 20.8689C97.5819 20.8689 97.459 20.6848 97.4598 19.9009L97.4526 13.1794C97.4562 12.6618 97.5189 12.8233 99.0047 12.8233C100.89 12.8233 102.131 12.8386 103.524 12.347C104.221 12.1014 104.611 11.8518 105.174 11.4816C106.889 10.3535 107.197 7.6853 106.502 6.09013C106.032 5.00957 104.91 4.16647 103.739 3.8338C101.64 3.23755 97.2107 3.61921 94.6725 3.50578C94.377 3.49262 94.2458 3.39662 94.2458 3.62833Z" fill="#BB8931" fill-opacity="1.000000" fill-rule="evenodd"/>
		<path id="path16" d="M97.4598 11.1901L97.4598 5.32211C97.4598 5.00655 98.1146 5.14075 99.0047 5.14075C100.197 5.14075 101.327 5.30782 102.137 5.70466C103.702 6.47163 103.898 8.21863 103.166 9.51617C102.514 10.6719 100.435 11.3716 99.0047 11.3716C98.1146 11.3716 97.4598 11.5056 97.4598 11.1901ZM94.2458 20.8689L97.336 20.8689C97.5819 20.8689 97.459 20.6848 97.4598 19.9009L97.4526 13.1794C97.4562 12.6618 97.5189 12.8233 99.0047 12.8233C100.89 12.8233 102.131 12.8386 103.524 12.347C104.221 12.1014 104.611 11.8518 105.174 11.4816C106.889 10.3535 107.197 7.6853 106.502 6.09013C106.032 5.00957 104.91 4.16647 103.739 3.8338C101.64 3.23755 97.2107 3.61921 94.6725 3.50578C94.377 3.49262 94.2458 3.39662 94.2458 3.62833L94.2458 20.8689Z" stroke="#000000" stroke-opacity="0" stroke-width="0.133333"/>
		<path id="path18" d="M19.522 2.41843C19.522 2.73885 19.9304 2.66361 20.263 2.66106C20.6135 2.65818 20.9645 2.66179 21.3151 2.6597C25.0149 2.6368 25.517 7.93611 22.0094 8.72478C21.0319 8.94466 8.17163 8.83076 6.10983 8.83076C5.41077 8.83076 1.37985 8.71446 0.918915 8.95253C-0.129852 9.49479 0.149658 10.853 1.03403 11.1369C1.54254 11.3003 1.47452 10.88 1.47452 12.3393L3.51401 12.3391L3.51401 11.2504L4.194 11.2504L4.194 12.8233L6.23346 12.8233L6.23346 11.2504L20.6961 11.2504C22.0413 11.2504 23.1192 11.0487 24.1554 10.4622C25.522 9.68811 26.7908 7.98615 26.8776 6.16913C26.8983 5.73665 26.9284 5.42458 26.8528 4.92208C26.7871 4.48444 26.6969 4.17117 26.5599 3.81757C25.819 1.9065 23.8578 0.240639 21.6233 0.240639L19.522 0.240639L19.522 2.41843Z" fill="#BB8931" fill-opacity="1.000000" fill-rule="evenodd"/>
		<path id="path18" d="M20.263 2.66106C20.6135 2.65818 20.9645 2.66179 21.3151 2.6597C25.0149 2.6368 25.517 7.93611 22.0094 8.72478C21.0319 8.94466 8.17163 8.83076 6.10983 8.83076C5.41077 8.83076 1.37985 8.71446 0.918915 8.95253C-0.129852 9.49479 0.149658 10.853 1.03403 11.1369C1.54254 11.3003 1.47452 10.88 1.47452 12.3393L3.51401 12.3391L3.51401 11.2504L4.194 11.2504L4.194 12.8233L6.23346 12.8233L6.23346 11.2504L20.6961 11.2504C22.0413 11.2504 23.1192 11.0487 24.1554 10.4622C25.522 9.68811 26.7908 7.98615 26.8776 6.16913C26.8983 5.73665 26.9284 5.42458 26.8528 4.92208C26.7871 4.48444 26.6969 4.17117 26.5599 3.81757C25.819 1.9065 23.8578 0.240639 21.6233 0.240639L19.522 0.240639L19.522 2.41843C19.522 2.73885 19.9304 2.66361 20.263 2.66106Z" stroke="#000000" stroke-opacity="0" stroke-width="0.133333"/>
		<path id="path20" d="M54.3188 9.43563C55.5567 9.43563 56.7557 10.1609 57.3122 10.861C58.213 11.9937 58.5216 12.9102 58.5216 14.4566C58.5216 17.2774 56.2032 19.7142 53.3688 18.9556C49.4246 17.9001 49.0597 10.7647 53.5881 9.56757C53.727 9.53085 54.191 9.43563 54.3188 9.43563ZM47.2728 14.2146C47.2728 15.3433 47.5151 16.2081 47.9114 16.9772C49.1675 19.4149 51.4109 20.9293 54.5659 20.9293C56.5681 20.9293 58.7933 19.8527 59.8904 18.5187C60.7289 17.4998 61.3857 16.3784 61.4849 14.9976C61.657 12.5928 60.9863 11.1665 59.3716 9.57165C56.8271 7.05846 52.1868 7.07212 49.6058 9.42049C49.4503 9.56163 49.3746 9.57211 49.2346 9.72222C48.8899 10.0912 48.3619 10.7414 48.1176 11.1702C47.6325 12.0222 47.2728 13.1355 47.2728 14.2146Z" fill="#000000" fill-opacity="1.000000" fill-rule="evenodd"/>
		<path id="path20" d="M57.3122 10.861C58.213 11.9937 58.5216 12.9102 58.5216 14.4566C58.5216 17.2774 56.2032 19.7142 53.3688 18.9556C49.4246 17.9001 49.0597 10.7647 53.5881 9.56757C53.727 9.53085 54.191 9.43563 54.3188 9.43563C55.5567 9.43563 56.7557 10.1609 57.3122 10.861ZM47.9114 16.9772C49.1675 19.4149 51.4109 20.9293 54.5659 20.9293C56.5681 20.9293 58.7933 19.8527 59.8904 18.5187C60.7289 17.4998 61.3857 16.3784 61.4849 14.9976C61.657 12.5928 60.9863 11.1665 59.3716 9.57165C56.8271 7.05846 52.1868 7.07212 49.6058 9.42049C49.4503 9.56163 49.3746 9.57211 49.2346 9.72222C48.8899 10.0912 48.3619 10.7414 48.1176 11.1702C47.6325 12.0222 47.2728 13.1355 47.2728 14.2146C47.2728 15.3433 47.5151 16.2081 47.9114 16.9772Z" stroke="#000000" stroke-opacity="0" stroke-width="0.133333"/>
		<path id="path22" d="M75.4567 12.5813C75.5154 12.4614 75.5583 12.073 75.6035 11.8785C76.4797 8.12399 82.0081 8.42044 82.0081 12.0973L82.0081 12.5208C80.8646 12.5208 79.9376 12.5813 78.7941 12.5813C77.6815 12.5813 76.5693 12.5813 75.4567 12.5813ZM72.119 14.0332C72.119 16.4183 72.5073 18.6005 74.5282 20.0231C74.9637 20.3297 75.7364 20.7094 76.2516 20.877C78.2642 21.5313 80.9554 21.4773 83.0342 20.966C83.3234 20.8948 83.8354 20.787 84.0476 20.6873C84.1424 20.4944 84.2947 19.3837 84.2947 19.054C83.7672 19.054 83.0501 19.352 82.4765 19.4522C80.3374 19.8254 77.9619 19.7731 76.5217 18.2534C75.5218 17.1977 75.2711 15.6362 75.2711 13.8517L85.1602 13.8517C85.1602 12.3752 85.0214 11.2113 84.3221 10.0743C84.1983 9.87296 84.1337 9.77863 83.9945 9.60864C83.8719 9.45915 83.768 9.31583 83.6316 9.17741C81.6519 7.16552 78.8607 6.97325 76.2679 7.9311C74.8352 8.46031 73.1859 9.76422 72.6667 11.1816C72.3684 11.9945 72.119 12.9202 72.119 14.0332Z" fill="#000000" fill-opacity="1.000000" fill-rule="evenodd"/>
		<path id="path22" d="M75.6035 11.8785C76.4797 8.12399 82.0081 8.42044 82.0081 12.0973L82.0081 12.5208C80.8646 12.5208 79.9376 12.5813 78.7941 12.5813C77.6815 12.5813 76.5693 12.5813 75.4567 12.5813C75.5154 12.4614 75.5583 12.073 75.6035 11.8785ZM74.5282 20.0231C74.9637 20.3297 75.7364 20.7094 76.2516 20.877C78.2642 21.5313 80.9554 21.4773 83.0342 20.966C83.3234 20.8948 83.8354 20.787 84.0476 20.6873C84.1424 20.4944 84.2947 19.3837 84.2947 19.054C83.7672 19.054 83.0501 19.352 82.4765 19.4522C80.3374 19.8254 77.9619 19.7731 76.5217 18.2534C75.5218 17.1977 75.2711 15.6362 75.2711 13.8517L85.1602 13.8517C85.1602 12.3752 85.0214 11.2113 84.3221 10.0743C84.1983 9.87296 84.1337 9.77863 83.9945 9.60864C83.8719 9.45915 83.768 9.31583 83.6316 9.17741C81.6519 7.16552 78.8607 6.97325 76.2679 7.9311C74.8352 8.46031 73.1859 9.76422 72.6667 11.1816C72.3684 11.9945 72.119 12.9202 72.119 14.0332C72.119 16.4183 72.5073 18.6005 74.5282 20.0231Z" stroke="#000000" stroke-opacity="0" stroke-width="0.133333"/>
		<path id="path24" d="M118.721 14.6986C118.721 13.1393 118.885 12.0333 119.913 10.8445C121.338 9.19743 123.511 8.92905 125.292 10.3847C128.223 12.7809 127.319 18.7092 123.056 19.1278C121.987 19.2329 120.632 18.6279 120.018 17.8444C119.281 16.9023 118.721 16.0249 118.721 14.6986ZM115.754 14.1541C115.754 16.186 116.466 17.5986 117.809 18.918C118.766 19.8572 120.544 20.8689 122.429 20.8689C124.288 20.8689 125.486 20.653 126.991 19.6477C127.149 19.5426 127.308 19.4317 127.45 19.3097C128.902 18.0588 129.969 16.3984 129.969 14.3356C129.969 11.7646 128.238 9.2934 125.855 8.32068C123.501 7.36008 120.993 7.44423 118.857 8.8426C118.669 8.9651 118.514 9.06914 118.349 9.19243C118.167 9.32783 118.084 9.42895 117.882 9.58213C117.357 9.97893 116.732 10.9074 116.434 11.4924C116.074 12.1992 115.754 13.1083 115.754 14.1541Z" fill="#BC8A31" fill-opacity="1.000000" fill-rule="evenodd"/>
		<path id="path24" d="M119.913 10.8445C121.338 9.19743 123.511 8.92905 125.292 10.3847C128.223 12.7809 127.319 18.7092 123.056 19.1278C121.987 19.2329 120.632 18.6279 120.018 17.8444C119.281 16.9023 118.721 16.0249 118.721 14.6986C118.721 13.1393 118.885 12.0333 119.913 10.8445ZM117.809 18.918C118.766 19.8572 120.544 20.8689 122.429 20.8689C124.288 20.8689 125.486 20.653 126.991 19.6477C127.149 19.5426 127.308 19.4317 127.45 19.3097C128.902 18.0588 129.969 16.3984 129.969 14.3356C129.969 11.7646 128.238 9.2934 125.855 8.32068C123.501 7.36008 120.993 7.44423 118.857 8.8426C118.669 8.9651 118.514 9.06914 118.349 9.19243C118.167 9.32783 118.084 9.42895 117.882 9.58213C117.357 9.97893 116.732 10.9074 116.434 11.4924C116.074 12.1992 115.754 13.1083 115.754 14.1541C115.754 16.186 116.466 17.5986 117.809 18.918Z" stroke="#000000" stroke-opacity="0" stroke-width="0.133333"/>
		<path id="path26" d="M63.6514 7.92337L62.1683 7.92337C61.8586 7.92337 61.9827 8.43939 61.9827 9.25415C61.9827 9.39362 62.0259 9.43563 62.1683 9.43563L63.6514 9.43563L63.6514 19.1752C63.6514 19.8825 64.2912 20.4145 64.7592 20.6921C65.3482 21.0413 66.0312 21.1958 66.8745 21.2836C67.8142 21.3814 69.5158 21.2738 70.3035 20.8465C70.8441 20.5534 70.7592 20.0421 70.7592 19.417C70.7592 19.0589 70.1682 19.1752 69.5233 19.1752C69.2 19.1752 69.4706 19.4718 68.6812 19.6819C67.2763 20.056 66.7416 19.1606 66.7416 17.7232L66.7416 9.61714C66.7416 9.33707 67.235 9.43458 67.5452 9.43547L69.6467 9.43563C70.6716 9.4373 70.5121 9.69373 70.5121 8.10489C70.5121 7.84135 70.1805 7.91837 69.895 7.92233L67.4211 7.92384C66.5905 7.93156 66.7301 8.14767 66.7408 6.16714L66.7408 5.5641L63.6514 5.5641L63.6514 7.92337Z" fill="#000000" fill-opacity="1.000000" fill-rule="evenodd"/>
		<path id="path26" d="M62.1683 7.92337C61.8586 7.92337 61.9827 8.43939 61.9827 9.25415C61.9827 9.39362 62.0259 9.43563 62.1683 9.43563L63.6514 9.43563L63.6514 19.1752C63.6514 19.8825 64.2912 20.4145 64.7592 20.6921C65.3482 21.0413 66.0312 21.1958 66.8745 21.2836C67.8142 21.3814 69.5158 21.2738 70.3035 20.8465C70.8441 20.5534 70.7592 20.0421 70.7592 19.417C70.7592 19.0589 70.1682 19.1752 69.5233 19.1752C69.2 19.1752 69.4706 19.4718 68.6812 19.6819C67.2763 20.056 66.7416 19.1606 66.7416 17.7232L66.7416 9.61714C66.7416 9.33707 67.235 9.43458 67.5452 9.43547L69.6467 9.43563C70.6716 9.4373 70.5121 9.69373 70.5121 8.10489C70.5121 7.84135 70.1805 7.91837 69.895 7.92233L67.4211 7.92384C66.5905 7.93156 66.7301 8.14767 66.7408 6.16714L66.7408 5.5641L63.6514 5.5641L63.6514 7.92337L62.1683 7.92337Z" stroke="#000000" stroke-opacity="0" stroke-width="0.133333"/>
		<path id="path28" d="M86.5818 20.7479C86.5818 20.8873 86.6246 20.9293 86.767 20.9293L89.3012 20.9293C89.4436 20.9293 89.4864 20.8873 89.4864 20.7479L89.4864 3.44681L86.5818 3.44681L86.5818 20.7479Z" fill="#000000" fill-opacity="1.000000" fill-rule="evenodd"/>
		<path id="path28" d="M86.767 20.9293L89.3012 20.9293C89.4436 20.9293 89.4864 20.8873 89.4864 20.7479L89.4864 3.44681L86.5818 3.44681L86.5818 20.7479C86.5818 20.8873 86.6246 20.9293 86.767 20.9293Z" stroke="#000000" stroke-opacity="0" stroke-width="0.133333"/>
		<path id="path30" d="M111.18 8.64924L111.18 7.92337L108.338 7.92337C108.195 7.92337 108.152 7.96537 108.152 8.10489L108.152 20.8689L111.18 20.8689C111.18 19.2661 111.093 13.9033 111.259 12.6576C111.373 11.8001 111.822 10.9487 112.431 10.357C113.151 9.65763 114.113 9.58364 115.064 9.48644C115.343 9.45806 115.892 9.37514 116.187 9.37514L116.187 7.86289C116.187 7.72338 116.144 7.68137 116.001 7.68137C114.561 7.68137 113.147 7.57901 111.881 8.24529C111.639 8.37238 111.421 8.58632 111.18 8.64924Z" fill="#BC8A31" fill-opacity="1.000000" fill-rule="evenodd"/>
		<path id="path30" d="M111.18 7.92337L108.338 7.92337C108.195 7.92337 108.152 7.96537 108.152 8.10489L108.152 20.8689L111.18 20.8689C111.18 19.2661 111.093 13.9033 111.259 12.6576C111.373 11.8001 111.822 10.9487 112.431 10.357C113.151 9.65763 114.113 9.58364 115.064 9.48644C115.343 9.45806 115.892 9.37514 116.187 9.37514L116.187 7.86289C116.187 7.72338 116.144 7.68137 116.001 7.68137C114.561 7.68137 113.147 7.57901 111.881 8.24529C111.639 8.37238 111.421 8.58632 111.18 8.64924L111.18 7.92337Z" stroke="#000000" stroke-opacity="0" stroke-width="0.133333"/>
		<path id="path32" d="M15.6899 12.5208L15.6899 20.9293C15.6899 21.2753 15.961 21.3492 16.2091 21.51C16.6121 21.7715 17.9949 22.8364 18.3476 22.8652C18.3476 19.666 18.2961 16.0679 18.3497 12.8817C18.362 12.1584 18.614 12.3393 15.8753 12.3393C15.7329 12.3393 15.6899 12.3815 15.6899 12.5208Z" fill="#000000" fill-opacity="1.000000" fill-rule="evenodd"/>
		<path id="path32" d="M15.6899 20.9293C15.6899 21.2753 15.961 21.3492 16.2091 21.51C16.6121 21.7715 17.9949 22.8364 18.3476 22.8652C18.3476 19.666 18.2961 16.0679 18.3497 12.8817C18.362 12.1584 18.614 12.3393 15.8753 12.3393C15.7329 12.3393 15.6899 12.3815 15.6899 12.5208L15.6899 20.9293Z" stroke="#000000" stroke-opacity="0" stroke-width="0.133333"/>
		<path id="path34" d="M15.6899 0.361633L15.6899 7.50002C15.6899 7.63922 15.7329 7.68138 15.8753 7.68138L18.1621 7.68138C18.3046 7.68138 18.3476 7.63922 18.3476 7.50002L18.3476 0.361633C18.3476 0.222313 18.3046 0.180161 18.1621 0.180161L15.8753 0.180161C15.7329 0.180161 15.6899 0.222313 15.6899 0.361633Z" fill="#000000" fill-opacity="1.000000" fill-rule="evenodd"/>
		<path id="path34" d="M15.6899 7.50002C15.6899 7.63922 15.7329 7.68138 15.8753 7.68138L18.1621 7.68138C18.3046 7.68138 18.3476 7.63922 18.3476 7.50002L18.3476 0.361633C18.3476 0.222313 18.3046 0.180161 18.1621 0.180161L15.8753 0.180161C15.7329 0.180161 15.6899 0.222313 15.6899 0.361633L15.6899 7.50002Z" stroke="#000000" stroke-opacity="0" stroke-width="0.133333"/>
		<path id="path36" d="M9.13846 16.6949C9.38556 16.7595 11.1054 18.0176 11.4523 18.2516C11.58 18.3377 11.7343 18.4769 11.7343 18.2071L11.7343 12.5208C11.7343 12.3815 11.6914 12.3393 11.5488 12.3393L9.13846 12.3393L9.13846 16.6949Z" fill="#000000" fill-opacity="1.000000" fill-rule="evenodd"/>
		<path id="path36" d="M11.4523 18.2516C11.58 18.3377 11.7343 18.4769 11.7343 18.2071L11.7343 12.5208C11.7343 12.3815 11.6914 12.3393 11.5488 12.3393L9.13846 12.3393L9.13846 16.6949C9.38556 16.7595 11.1054 18.0176 11.4523 18.2516Z" stroke="#000000" stroke-opacity="0" stroke-width="0.133333"/>
		<path id="path38" d="M9.13846 7.68138L11.5488 7.68138C11.6914 7.68138 11.7343 7.63922 11.7343 7.50002L11.7343 2.78143C11.7343 2.64207 11.6914 2.60007 11.5488 2.60007L9.13846 2.60007L9.13846 7.68138Z" fill="#000000" fill-opacity="1.000000" fill-rule="evenodd"/>
		<path id="path38" d="M11.5488 7.68138C11.6914 7.68138 11.7343 7.63922 11.7343 7.50002L11.7343 2.78143C11.7343 2.64207 11.6914 2.60007 11.5488 2.60007L9.13846 2.60007L9.13846 7.68138L11.5488 7.68138Z" stroke="#000000" stroke-opacity="0" stroke-width="0.133333"/>
	</g>
</svg>
