<svg width="24.000000" height="24.000000" viewBox="0 0 24 24" fill="none" xmlns="http://www.w3.org/2000/svg" xmlns:xlink="http://www.w3.org/1999/xlink">
	<desc>
			Created with Pixso.
	</desc>
	<defs>
		<clipPath id="clip38_4028">
			<rect id="Teacup 5" width="24.000000" height="24.000000" fill="white" fill-opacity="0"/>
		</clipPath>
	</defs>
	<g clip-path="url(#clip38_4028)">
		<path id="path" d="M6 3C6 2.44775 6.44775 2 7 2L17 2C17.5522 2 18 2.44775 18 3L18 15C18 15.5522 17.5522 16 17 16L7 16C6.44775 16 6 15.5522 6 15L6 3Z" fill="#000000" fill-opacity="0" fill-rule="nonzero"/>
		<path id="path" d="M7 2L17 2C17.5522 2 18 2.44775 18 3L18 15C18 15.5522 17.5522 16 17 16L7 16C6.44775 16 6 15.5522 6 15L6 3C6 2.44775 6.44775 2 7 2Z" stroke="#FFFFFF" stroke-opacity="1.000000" stroke-width="1.500000" stroke-linejoin="round"/>
		<circle id="circle" cx="9.000000" cy="13.000000" r="1.000000" fill="#808080" fill-opacity="1.000000"/>
		<circle id="circle" cx="9.000000" cy="13.000000" r="0.500000" stroke="#FFFFFF" stroke-opacity="1.000000" stroke-width="1.000000"/>
		<circle id="circle" cx="15.000000" cy="13.000000" r="1.000000" fill="#808080" fill-opacity="1.000000"/>
		<circle id="circle" cx="15.000000" cy="13.000000" r="0.500000" stroke="#FFFFFF" stroke-opacity="1.000000" stroke-width="1.000000"/>
		<path id="path" d="M6.02002 10.73L6 10.75C5.57996 10.75 5.25 10.4199 5.25 10C5.25 9.58008 5.57996 9.25 6 9.25L6.02002 9.27002L6.02002 10.73ZM17.98 9.27002L18 9.25C18.42 9.25 18.75 9.58008 18.75 10C18.75 10.4199 18.42 10.75 18 10.75L17.98 10.73L17.98 9.27002Z" fill="#000000" fill-opacity="0" fill-rule="nonzero"/>
		<path id="path" d="M6 10L18 10" stroke="#FFFFFF" stroke-opacity="1.000000" stroke-width="1.500000" stroke-linejoin="round" stroke-linecap="round"/>
		<path id="path" d="M10.52 19.73L10.5 19.75C10.08 19.75 9.75 19.4199 9.75 19C9.75 18.5801 10.08 18.25 10.5 18.25L10.52 18.27L10.52 19.73ZM13.48 18.27L13.5 18.25C13.92 18.25 14.25 18.5801 14.25 19C14.25 19.4199 13.92 19.75 13.5 19.75L13.48 19.73L13.48 18.27Z" fill="#000000" fill-opacity="0" fill-rule="nonzero"/>
		<path id="path" d="M10.5 19L13.5 19" stroke="#FFFFFF" stroke-opacity="1.000000" stroke-width="1.500000" stroke-linejoin="round" stroke-linecap="round"/>
		<path id="path" d="M9.02002 22.73L9 22.75C8.57996 22.75 8.25 22.4199 8.25 22C8.25 21.5801 8.57996 21.25 9 21.25L9.02002 21.27L9.02002 22.73ZM14.98 21.27L15 21.25C15.42 21.25 15.75 21.5801 15.75 22C15.75 22.4199 15.42 22.75 15 22.75L14.98 22.73L14.98 21.27Z" fill="#000000" fill-opacity="0" fill-rule="nonzero"/>
		<path id="path" d="M9 22L15 22" stroke="#FFFFFF" stroke-opacity="1.000000" stroke-width="1.500000" stroke-linejoin="round" stroke-linecap="round"/>
		<path id="path" d="M6.16187 22.3086L6.17078 22.3354C5.98303 22.7112 5.54028 22.8586 5.16455 22.6709C4.78894 22.4829 4.64136 22.0403 4.82922 21.6646L4.85596 21.6558L6.16187 22.3086ZM7.83813 15.6914L7.82922 15.6646C8.01697 15.2888 8.45972 15.1414 8.83545 15.3291C9.21106 15.5171 9.35864 15.9597 9.17078 16.3354L9.14404 16.3442L7.83813 15.6914Z" fill="#000000" fill-opacity="0" fill-rule="nonzero"/>
		<path id="path" d="M5.5 22L8.5 16" stroke="#FFFFFF" stroke-opacity="1.000000" stroke-width="1.500000" stroke-linecap="round"/>
		<path id="path" d="M14.856 16.3442L14.8292 16.3354C14.6414 15.9597 14.7889 15.5171 15.1646 15.3291C15.5403 15.1414 15.983 15.2888 16.1708 15.6646L16.1619 15.6914L14.856 16.3442ZM19.144 21.6558L19.1708 21.6646C19.3586 22.0403 19.2111 22.4829 18.8354 22.6709C18.4597 22.8586 18.017 22.7112 17.8292 22.3354L17.8381 22.3086L19.144 21.6558Z" fill="#000000" fill-opacity="0" fill-rule="nonzero"/>
		<path id="path" d="M15.5 16L18.5 22" stroke="#FFFFFF" stroke-opacity="1.000000" stroke-width="1.500000" stroke-linecap="round"/>
		<path id="path" d="M17.27 7.52002L17.25 7.5C17.25 7.08008 17.58 6.75 18 6.75C18.42 6.75 18.75 7.08008 18.75 7.5L18.73 7.52002L17.27 7.52002ZM18.73 12.48L18.75 12.5C18.75 12.9199 18.42 13.25 18 13.25C17.58 13.25 17.25 12.9199 17.25 12.5L17.27 12.48L18.73 12.48Z" fill="#000000" fill-opacity="0" fill-rule="nonzero"/>
		<path id="path" d="M18 7.5L18 12.5" stroke="#FFFFFF" stroke-opacity="1.000000" stroke-width="1.500000" stroke-linejoin="round" stroke-linecap="round"/>
		<path id="path" d="M5.27002 7.52002L5.25 7.5C5.25 7.08008 5.57996 6.75 6 6.75C6.42004 6.75 6.75 7.08008 6.75 7.5L6.72998 7.52002L5.27002 7.52002ZM6.72998 12.48L6.75 12.5C6.75 12.9199 6.42004 13.25 6 13.25C5.57996 13.25 5.25 12.9199 5.25 12.5L5.27002 12.48L6.72998 12.48Z" fill="#000000" fill-opacity="0" fill-rule="nonzero"/>
		<path id="path" d="M6 7.5L6 12.5" stroke="#FFFFFF" stroke-opacity="1.000000" stroke-width="1.500000" stroke-linejoin="round" stroke-linecap="round"/>
	</g>
</svg>
