
<svg width="24.000000" height="24.000000" viewBox="0 0 24 24" fill="none" xmlns="http://www.w3.org/2000/svg" xmlns:xlink="http://www.w3.org/1999/xlink">
	<desc>
			Created with Pixso.
	</desc>
	<defs>
		<clipPath id="clip615_367">
			<rect id="Parking lot" width="24.000000" height="24.000000" transform="translate(-0.250000 0.250000)" fill="white" fill-opacity="0"/>
		</clipPath>
	</defs>
	<rect id="parking" width="24.000000" height="24.000000" fill="#FFFFFF" fill-opacity="0"/>
	<path id="Union" d="M19.1689 14.7849C20.0566 13.0376 20.5 11.3593 20.5 9.75C20.5 8.62512 20.2686 7.54919 19.8047 6.52222C19.6543 6.18884 19.4834 5.86829 19.291 5.56079C18.9141 4.95703 18.457 4.4032 17.9199 3.89954C17.6084 3.60754 17.2793 3.34094 16.9316 3.09985L16.9316 3.09973L16.9316 3.09973C16.3799 2.71594 15.7822 2.39685 15.1406 2.14221C14.7256 1.97766 14.3027 1.84473 13.873 1.74341L13.873 1.74341C13.1846 1.58118 12.4766 1.5 11.75 1.5C11.0234 1.5 10.3154 1.58105 9.62695 1.74329L9.62695 1.74341C9.19727 1.84473 8.77441 1.97766 8.35938 2.14221C7.71777 2.39685 7.12012 2.71594 6.56836 3.09973L6.56836 3.09973L6.56836 3.09973L6.56836 3.09973L6.56836 3.09973C6.2207 3.34082 5.8916 3.60742 5.58008 3.89954C5.04297 4.4032 4.58594 4.95679 4.20898 5.56055L4.20898 5.56067C4.0166 5.86829 3.8457 6.18872 3.69531 6.52222C3.45898 7.04553 3.2832 7.58154 3.16699 8.13013C3.05566 8.65833 3 9.19824 3 9.75C3 11.3593 3.44336 13.0376 4.33105 14.7849C5.02539 16.1519 5.97656 17.533 7.18262 18.9281C8.03809 19.9169 8.97754 20.865 10.0029 21.7725C10.3242 22.0566 10.6348 22.3201 10.9346 22.5629C11.0879 22.6864 11.209 22.7821 11.2998 22.85C11.5996 23.075 11.9004 23.075 12.2002 22.85C12.291 22.7821 12.4121 22.6864 12.5654 22.5629C12.8652 22.3201 13.1758 22.0566 13.4971 21.7725C14.5225 20.865 15.4619 19.9169 16.3174 18.9281C17.5234 17.533 18.4746 16.1519 19.1689 14.7849ZM18.8662 8.4458L18.8662 8.4458C18.9551 8.87109 19 9.30591 19 9.75C19 11.1199 18.6104 12.5718 17.8311 14.1057C17.1924 15.3638 16.3096 16.6442 15.1826 17.9469C14.3711 18.8853 13.4775 19.7861 12.5029 20.6494C12.2441 20.8784 11.9932 21.0927 11.75 21.2922C11.5068 21.0927 11.2559 20.8784 10.9971 20.6494C10.0225 19.7861 9.12891 18.8853 8.31738 17.9469C7.19043 16.6442 6.30762 15.3638 5.66895 14.1057C4.88965 12.5718 4.5 11.1199 4.5 9.75C4.5 9.30591 4.54492 8.87122 4.63379 8.4458L4.63379 8.4458C4.72754 7.99988 4.87012 7.56433 5.0625 7.13904C5.17188 6.89575 5.2959 6.66077 5.43262 6.43408C5.75 5.90955 6.1416 5.42944 6.60645 4.9939C6.84863 4.76648 7.10449 4.55774 7.37305 4.36768L7.37305 4.36755C7.8457 4.0332 8.3584 3.7561 8.91211 3.53662C9.23926 3.4071 9.57129 3.30103 9.90918 3.21838C10.5049 3.07275 11.1182 3 11.75 3C12.3818 3 12.9951 3.07275 13.5908 3.21838C13.9287 3.30103 14.2607 3.4071 14.5879 3.53662C15.1416 3.75623 15.6543 4.0332 16.127 4.36768L16.127 4.36768C16.3955 4.55774 16.6514 4.7666 16.8936 4.9939C17.5596 5.61768 18.0742 6.33276 18.4375 7.13904C18.6299 7.56421 18.7725 7.99963 18.8662 8.44531L18.8662 8.4458ZM11 10.5L13.25 10.5C13.4199 10.5 13.582 10.4674 13.7363 10.4021C13.8857 10.3389 14.0186 10.2495 14.1338 10.1339C14.249 10.0183 14.3389 9.88574 14.4023 9.73633C14.4678 9.58203 14.5 9.41992 14.5 9.25C14.5 9.08008 14.4678 8.91797 14.4023 8.76367C14.3389 8.61426 14.249 8.48169 14.1338 8.36609C14.0186 8.25049 13.8857 8.16113 13.7363 8.0979C13.582 8.03259 13.4199 8 13.25 8L11 8L11 10.5ZM11 15.25L11 12L13.25 12C13.4512 12 13.6475 11.979 13.8389 11.9371C14.0029 11.9012 14.1631 11.8501 14.3203 11.7836C14.6494 11.6444 14.9414 11.448 15.1943 11.1946C15.4482 10.941 15.6445 10.6498 15.7832 10.3207C15.9277 9.97949 16 9.62268 16 9.25C16 9.04919 15.9795 8.85291 15.9375 8.66125C15.9014 8.49731 15.8506 8.33667 15.7832 8.17932C15.6445 7.85022 15.4482 7.55896 15.1943 7.30542C14.9414 7.052 14.6494 6.85559 14.3203 6.71643C13.9795 6.57214 13.623 6.5 13.25 6.5L10.25 6.5C10 6.5 9.8125 6.5625 9.6875 6.6875C9.5625 6.8125 9.5 7 9.5 7.25L9.5 15.25C9.5 15.67 9.83008 16 10.25 16C10.6699 16 11 15.67 11 15.25Z" clip-rule="evenodd" fill="#808080" fill-opacity="1.000000" fill-rule="evenodd"/>
</svg>
