
<svg width="24.000000" height="24.000000" viewBox="0 0 24 24" fill="none" xmlns="http://www.w3.org/2000/svg" xmlns:xlink="http://www.w3.org/1999/xlink">
	<desc>
			Created with Pixso.
	</desc>
	<defs>
		<clipPath id="clip16_6721">
			<rect id="Bodybuilding" width="24.000000" height="24.000000" fill="white" fill-opacity="0"/>
		</clipPath>
	</defs>
	<g clip-path="url(#clip16_6721)">
		<path id="path" d="M5.5 5.5C4.67188 5.5 4 6.08203 4 6.80005L4 17.2C4 17.918 4.67188 18.5 5.5 18.5C6.32812 18.5 7 17.918 7 17.2L7 6.80005C7 6.08203 6.32812 5.5 5.5 5.5Z" stroke="#808080" stroke-opacity="1.000000" stroke-width="1.500000" stroke-linejoin="round"/>
		<path id="path" d="M18.5 5.5C17.6719 5.5 17 6.08203 17 6.80005L17 17.2C17 17.918 17.6719 18.5 18.5 18.5C19.3281 18.5 20 17.918 20 17.2L20 6.80005C20 6.08203 19.3281 5.5 18.5 5.5Z" stroke="#808080" stroke-opacity="1.000000" stroke-width="1.500000" stroke-linejoin="round"/>
		<path id="path" d="M2.5 8C1.67188 8 1 8.59692 1 9.33337L1 14.6666C1 15.4031 1.67188 16 2.5 16C3.32812 16 4 15.4031 4 14.6666L4 9.33337C4 8.59692 3.32812 8 2.5 8Z" stroke="#808080" stroke-opacity="1.000000" stroke-width="1.500000" stroke-linejoin="round"/>
		<path id="path" d="M21.5 8C20.6719 8 20 8.59692 20 9.33337L20 14.6666C20 15.4031 20.6719 16 21.5 16C22.3281 16 23 15.4031 23 14.6666L23 9.33337C23 8.59692 22.3281 8 21.5 8Z" stroke="#808080" stroke-opacity="1.000000" stroke-width="1.500000" stroke-linejoin="round"/>
		<rect id="rect" width="10.000000" height="3.000000" transform="matrix(1 0 0 -1 7 13.5)" stroke="#808080" stroke-opacity="1.000000" stroke-width="1.500000" stroke-linejoin="round"/>
	</g>
</svg>
