
<svg width="24.000000" height="24.000000" viewBox="0 0 24 24" fill="none" xmlns="http://www.w3.org/2000/svg" xmlns:xlink="http://www.w3.org/1999/xlink">
	<desc>
			Created with Pixso.
	</desc>
	<defs>
		<clipPath id="clip615_357">
			<rect id="Swimming Pool" width="24.000000" height="24.000000" fill="white" fill-opacity="0"/>
		</clipPath>
	</defs>
	<g clip-path="url(#clip615_357)">
		<path id="path" d="M18 13.5L18 4C18 2.89502 18.8945 2 20 2L22 2" stroke="#808080" stroke-opacity="1.000000" stroke-width="1.500000" stroke-linejoin="round" stroke-linecap="round"/>
		<path id="path" d="M5 13.5L5 4C5 2.89502 5.89453 2 7 2L9 2" stroke="#808080" stroke-opacity="1.000000" stroke-width="1.500000" stroke-linejoin="round" stroke-linecap="round"/>
		<path id="path" d="M5 6L18 6" stroke="#808080" stroke-opacity="1.000000" stroke-width="1.500000" stroke-linejoin="round" stroke-linecap="round"/>
		<path id="path" d="M5 10L18 10" stroke="#808080" stroke-opacity="1.000000" stroke-width="1.500000" stroke-linejoin="round" stroke-linecap="round"/>
		<path id="path" d="M2 17L3.25 17.6757C4.0498 18.1082 4.9502 18.1082 5.75 17.6757C6.5498 17.2433 7.4502 17.2433 8.25 17.6757C9.0498 18.1082 9.9502 18.1082 10.75 17.6757C11.5498 17.2433 12.4502 17.2433 13.25 17.6757C14.0498 18.1082 14.9502 18.1082 15.75 17.6757C16.5498 17.2433 17.4502 17.2433 18.25 17.6757C19.0498 18.1082 19.9502 18.1082 20.75 17.6757L22 17" stroke="#808080" stroke-opacity="1.000000" stroke-width="1.500000" stroke-linejoin="round" stroke-linecap="round"/>
		<path id="path" d="M2 20L3.25 20.6757C4.0498 21.1082 4.9502 21.1082 5.75 20.6757C6.5498 20.2433 7.4502 20.2433 8.25 20.6757C9.0498 21.1082 9.9502 21.1082 10.75 20.6757C11.5498 20.2433 12.4502 20.2433 13.25 20.6757C14.0498 21.1082 14.9502 21.1082 15.75 20.6757C16.5498 20.2433 17.4502 20.2433 18.25 20.6757C19.0498 21.1082 19.9502 21.1082 20.75 20.6757L22 20" stroke="#808080" stroke-opacity="1.000000" stroke-width="1.500000" stroke-linejoin="round" stroke-linecap="round"/>
	</g>
</svg>
