
<svg width="24.000000" height="24.000000" viewBox="0 0 24 24" fill="none" xmlns="http://www.w3.org/2000/svg" xmlns:xlink="http://www.w3.org/1999/xlink">
	<desc>
			Created with Pixso.
	</desc>
	<defs>
		<clipPath id="clip615_338">
			<rect id="Teacup 4" width="24.000000" height="24.000000" fill="white" fill-opacity="0"/>
		</clipPath>
	</defs>
	<g clip-path="url(#clip615_338)">
		<path id="path" d="M14.5 16C21.4639 16 22 13.5 22 12.5C22 11.5 22 5 22 5L14.5 5L7 5C7 5 7 11.5 7 12.5C7 13.5 7.53613 16 14.5 16Z" stroke="#808080" stroke-opacity="1.000000" stroke-width="1.500000" stroke-linejoin="round"/>
		<path id="path" d="M11.5 8L11.5 10.5L13 12L14.5 10.5L14.5 8L11.5 8Z" stroke="#808080" stroke-opacity="1.000000" stroke-width="1.500000" stroke-linejoin="round"/>
		<path id="path" d="M13 5L13 8" stroke="#808080" stroke-opacity="1.000000" stroke-width="1.500000" stroke-linejoin="round" stroke-linecap="round"/>
		<path id="path" d="M7.5 20L21.5 20" stroke="#808080" stroke-opacity="1.000000" stroke-width="1.500000" stroke-linejoin="round" stroke-linecap="round"/>
		<path id="path" d="M7 7L2 7C2 7 2.5 9.5 3 11C3.49902 12.5 7 12 7 12" stroke="#808080" stroke-opacity="1.000000" stroke-width="1.500000" stroke-linejoin="round"/>
	</g>
</svg>
