<svg width="24.000000" height="24.000000" viewBox="0 0 24 24" fill="none" xmlns="http://www.w3.org/2000/svg" xmlns:xlink="http://www.w3.org/1999/xlink">
	<desc>
			Created with Pixso.
	</desc>
	<defs>
		<clipPath id="clip615_372">
			<rect id="Cocktail" width="24.000000" height="24.000000" fill="white" fill-opacity="0"/>
		</clipPath>
	</defs>
	<g clip-path="url(#clip615_372)">
		<path id="path" d="M3.70508 6.5L19.2939 6.5L11.499 15.5L3.70508 6.5Z" stroke="#808080" stroke-opacity="1.000000" stroke-width="1.500000" stroke-linejoin="round"/>
		<path id="line" d="M11.5 16L11.5 21" stroke="#808080" stroke-opacity="1.000000" stroke-width="1.500000" stroke-linejoin="round" stroke-linecap="round"/>
		<path id="line" d="M8.5 22L14.5 22" stroke="#808080" stroke-opacity="1.000000" stroke-width="1.500000" stroke-linecap="round"/>
		<path id="line" d="M8 11.5L15 11.5" stroke="#808080" stroke-opacity="1.000000" stroke-width="1.500000" stroke-linejoin="round" stroke-linecap="round"/>
		<path id="path" d="M17.5 9L19 9C20.6572 9 22 7.65686 22 6C22 4.34314 20.6572 3 19 3C17.3428 3 16 4.34314 16 6C16 6.17041 16.0146 6.3374 16.041 6.5" stroke="#808080" stroke-opacity="1.000000" stroke-width="1.500000" stroke-linejoin="round" stroke-linecap="round"/>
		<path id="path" d="M5.5 8.57178L9.76758 13.5" stroke="#808080" stroke-opacity="1.000000" stroke-width="1.500000" stroke-linejoin="round" stroke-linecap="round"/>
		<path id="path" d="M13.1055 13.6465L17.5 8.5719" stroke="#808080" stroke-opacity="1.000000" stroke-width="1.500000" stroke-linejoin="round" stroke-linecap="round"/>
	</g>
</svg>
