
<svg width="24.000000" height="24.000000" viewBox="0 0 24 24" fill="none" xmlns="http://www.w3.org/2000/svg" xmlns:xlink="http://www.w3.org/1999/xlink">
	<desc>
			Created with Pixso.
	</desc>
	<defs>
		<clipPath id="clip615_398">
			<rect id="Monitor" width="24.000000" height="24.000000" fill="white" fill-opacity="0"/>
		</clipPath>
	</defs>
	<g clip-path="url(#clip615_398)">
		<path id="path" d="M3.5 3L20.5 3C21.0527 3 21.5 3.44775 21.5 4L21.5 16C21.5 16.5522 21.0527 17 20.5 17L3.5 17C2.94727 17 2.5 16.5522 2.5 16L2.5 4C2.5 3.44775 2.94727 3 3.5 3Z" stroke="#808080" stroke-opacity="1.000000" stroke-width="1.500000" stroke-linejoin="round"/>
		<path id="path" d="M3.5 12L20.5 12C21.0527 12 21.5 12.4478 21.5 13L21.5 16C21.5 16.5522 21.0527 17 20.5 17L3.5 17C2.94727 17 2.5 16.5522 2.5 16L2.5 13C2.5 12.4478 2.94727 12 3.5 12Z" stroke="#808080" stroke-opacity="1.000000" stroke-width="1.500000" stroke-linejoin="round"/>
		<path id="path" d="M9 8.5L11 6" stroke="#808080" stroke-opacity="1.000000" stroke-width="1.500000" stroke-linejoin="round" stroke-linecap="round"/>
		<path id="path" d="M12.5 9L14 7" stroke="#808080" stroke-opacity="1.000000" stroke-width="1.500000" stroke-linejoin="round" stroke-linecap="round"/>
		<circle id="circle" cx="12.000000" cy="14.500000" r="1.000000" fill="#808080" fill-opacity="1.000000"/>
		<path id="path" d="M8.5 17L7 21L17 21L15.5 17" stroke="#808080" stroke-opacity="1.000000" stroke-width="1.500000" stroke-linejoin="round" stroke-linecap="round"/>
	</g>
</svg>
